<svg width="60" height="59" viewBox="0 0 60 59" fill="none" xmlns="http://www.w3.org/2000/svg">
<rect x="0.5" width="59" height="59" rx="10" fill="#DE8E16"/>
<path fill-rule="evenodd" clip-rule="evenodd" d="M14.2403 29.6059C14.2403 20.8482 21.3322 13.7405 30.0899 13.7405C38.8635 13.7405 45.9712 20.8482 45.9712 29.6059C45.9712 38.3637 38.8635 45.4714 30.0899 45.4714C21.3322 45.4714 14.2403 38.3637 14.2403 29.6059ZM17.4134 29.6059C17.4134 36.6185 23.0932 42.2983 30.1058 42.2983C37.1183 42.2983 42.7981 36.6185 42.7981 29.6059C42.7981 22.5934 37.1183 16.9136 30.1058 16.9136C23.0932 16.9136 17.4134 22.5934 17.4134 29.6059ZM26.9326 25.6397C26.9326 26.9541 25.8671 28.0195 24.5528 28.0195C23.2385 28.0195 22.173 26.9541 22.173 25.6397C22.173 24.3254 23.2385 23.2599 24.5528 23.2599C25.8671 23.2599 26.9326 24.3254 26.9326 25.6397ZM38.0384 25.6397C38.0384 26.9541 36.973 28.0195 35.6586 28.0195C34.3443 28.0195 33.2788 26.9541 33.2788 25.6397C33.2788 24.3254 34.3443 23.2599 35.6586 23.2599C36.973 23.2599 38.0384 24.3254 38.0384 25.6397ZM30.1057 39.1254C33.723 39.1254 36.8009 36.4917 38.0384 32.7792H22.173C23.4105 36.4917 26.4884 39.1254 30.1057 39.1254Z" fill="#FFF27E"/>
</svg>
