<svg width="35" height="35" viewBox="0 0 24 24" fill="none" xmlns="http://www.w3.org/2000/svg">
<rect width="24" height="24" fill="white" fill-opacity="0.01"/>
<path fill-rule="evenodd" clip-rule="evenodd" d="M11.701 16.7C11.0383 16.7094 10.3803 16.5869 9.76525 16.3398C9.15022 16.0926 8.59045 15.7257 8.11846 15.2604C7.64647 14.795 7.27168 14.2405 7.01587 13.629C6.76005 13.0175 6.62832 12.3613 6.62832 11.6985C6.62832 11.0357 6.76005 10.3795 7.01587 9.76799C7.27168 9.15652 7.64647 8.60199 8.11846 8.13663C8.59045 7.67127 9.15022 7.30435 9.76525 7.05721C10.3803 6.81006 11.0383 6.68762 11.701 6.69699C13.0277 6.69699 14.2999 7.22399 15.238 8.16204C16.176 9.1001 16.703 10.3724 16.703 11.699C16.703 13.0256 16.176 14.2979 15.238 15.2359C14.2999 16.174 13.0277 16.701 11.701 16.701V16.7ZM20.069 13.584C19.6764 13.4489 19.3357 13.1947 19.0945 12.8568C18.8532 12.5189 18.7233 12.1142 18.723 11.699C18.723 10.823 19.286 10.086 20.068 9.81399C20.1835 9.77596 20.2801 9.69557 20.3386 9.58904C20.3971 9.48251 20.4129 9.35777 20.383 9.23999C20.1859 8.54432 19.9052 7.8751 19.547 7.24699C19.488 7.14748 19.3948 7.07284 19.2847 7.03696C19.1747 7.00109 19.0554 7.00643 18.949 7.05199C18.5391 7.21777 18.0863 7.24585 17.659 7.13199C17.3236 7.04234 17.0174 6.86638 16.7711 6.62163C16.5248 6.37688 16.3468 6.07188 16.255 5.73699C16.1383 5.30793 16.165 4.85249 16.331 4.43999C16.376 4.3336 16.3809 4.21451 16.3449 4.10476C16.3089 3.99501 16.2343 3.90202 16.135 3.84299C15.512 3.48989 14.849 3.21259 14.16 3.01699C14.0424 2.98679 13.9176 3.00243 13.8111 3.06072C13.7045 3.11902 13.6241 3.21563 13.586 3.33099C13.451 3.7236 13.1968 4.06429 12.8589 4.30557C12.521 4.54684 12.1162 4.67668 11.701 4.67699C11.2861 4.67669 10.8816 4.54696 10.5439 4.30587C10.2062 4.06477 9.95209 3.72434 9.81704 3.33199C9.7786 3.21664 9.69798 3.12009 9.59135 3.06167C9.48471 3.00325 9.35994 2.98729 9.24204 3.01699C8.53404 3.21699 7.86304 3.50199 7.23804 3.85899C7.14065 3.91606 7.06705 4.00627 7.03069 4.11313C6.99434 4.21999 6.99765 4.33637 7.04004 4.44099C7.18931 4.8048 7.22812 5.20452 7.15164 5.59025C7.07517 5.97599 6.88678 6.33066 6.61 6.61C6.33322 6.88934 5.9803 7.08098 5.59528 7.16101C5.21027 7.24104 4.81021 7.2059 4.44504 7.05999C4.33888 7.01557 4.22026 7.01093 4.11096 7.04694C4.00166 7.08294 3.90901 7.15717 3.85004 7.25599C3.49282 7.88456 3.21311 8.55411 3.01704 9.24999C2.98735 9.36659 3.00253 9.49008 3.05957 9.59602C3.11661 9.70195 3.21136 9.7826 3.32504 9.82199C3.71207 9.96045 4.04688 10.2151 4.28369 10.551C4.5205 10.887 4.64775 11.2879 4.64804 11.699C4.64804 12.566 4.09604 13.298 3.32404 13.576C3.21065 13.6152 3.11609 13.6955 3.05905 13.801C3.00202 13.9066 2.98667 14.0297 3.01604 14.146C3.19209 14.7669 3.43449 15.367 3.73904 15.936C3.79882 16.0417 3.89666 16.1206 4.0126 16.1566C4.12855 16.1927 4.25388 16.1831 4.36304 16.13C4.95804 15.857 5.70604 15.866 6.46704 16.368C6.58404 16.445 6.69204 16.553 6.76904 16.668C7.29604 17.468 7.28104 18.248 6.96704 18.856C6.90948 18.9623 6.89481 19.0866 6.92606 19.2034C6.9573 19.3202 7.03208 19.4206 7.13504 19.484C7.79699 19.8723 8.50614 20.1737 9.24504 20.381C9.36205 20.4113 9.48622 20.3958 9.59218 20.3377C9.69813 20.2795 9.77785 20.183 9.81504 20.068C9.94898 19.6739 10.2028 19.3316 10.541 19.089C10.8792 18.8464 11.2848 18.7156 11.701 18.715C12.579 18.715 13.319 19.282 13.588 20.068C13.6254 20.1829 13.7052 20.2792 13.8111 20.3373C13.917 20.3955 14.041 20.4111 14.158 20.381C14.8872 20.1759 15.5875 19.8792 16.242 19.498C16.3456 19.4344 16.4207 19.3334 16.4518 19.2159C16.4829 19.0984 16.4676 18.9735 16.409 18.867C16.091 18.259 16.072 17.474 16.6 16.672C16.677 16.556 16.785 16.447 16.902 16.37C17.674 15.859 18.429 15.857 19.027 16.14C19.1362 16.1947 19.2621 16.2055 19.3789 16.1701C19.4957 16.1348 19.5945 16.056 19.655 15.95C19.962 15.3805 20.2061 14.7793 20.383 14.157C20.4132 14.0395 20.3975 13.9149 20.3392 13.8085C20.2809 13.7021 20.1843 13.6218 20.069 13.584Z" fill="#42526E"/>
</svg>
