<svg width="202" height="84" viewBox="0 0 202 84" fill="none" xmlns="http://www.w3.org/2000/svg">
<path d="M100.532 56.6193L95.6792 48.2122H95.2008V56.6193H89.1517V35.6699L95.2008 26.2034V45.7516C96.3969 44.2821 100.464 38.6774 100.464 38.6774H107.948L100.84 46.1959L108.187 56.6535L100.532 56.6193ZM81.2573 38.7457H87.2721L80.232 56.551C78.1474 61.9165 75.1399 65.539 70.663 65.539C68.9542 65.539 67.4847 65.0947 66.7329 64.6505L69.1593 60.9254C69.5352 60.9596 69.877 60.9937 70.2529 60.9937C72.3376 60.9937 73.8755 58.9774 74.8665 56.6193L67.4505 38.7457H74.2514L76.917 46.7085C77.4297 48.2122 77.8056 51.1171 77.8056 51.1171C77.8056 51.1171 78.2841 48.3148 78.7625 46.811L81.2573 38.7457ZM60.4446 56.6193V46.4009C60.4446 44.077 59.4194 42.9493 57.4372 42.9493C56.4803 42.9493 55.4551 43.2227 54.7716 43.6328V56.5851H48.7225V38.9166L54.669 38.4381L54.5323 41.343H54.7374C56.0019 39.6343 58.1891 38.3356 60.7864 38.3356C63.8963 38.3356 66.562 40.2494 66.562 44.7947V56.6535H60.4446V56.6193ZM37.8549 56.9952C35.2575 56.9952 33.1729 56.551 31.3616 55.6966L31.9084 51.5614C33.788 52.4841 35.941 52.9284 37.7523 52.9284C39.051 52.9284 39.9054 52.4841 39.9054 51.6981C39.9054 49.4425 31.7375 49.9893 31.7375 44.077C31.7375 40.2836 35.2234 38.3014 39.5636 38.3014C41.7166 38.3014 43.9722 38.8824 45.4076 39.395L44.8266 43.4619C43.2887 42.8809 41.2382 42.3341 39.5294 42.3341C38.47 42.3341 37.6156 42.71 37.6156 43.3935C37.6156 45.6149 45.9544 45.1706 45.9544 50.9462C45.9544 54.808 42.5368 56.9952 37.8549 56.9952Z" fill="white"/>
<path d="M128.932 55.3205C126.984 56.3799 124.079 57.0634 120.764 57.0634C113.245 57.0634 108.598 52.2447 108.598 45.4097C108.598 38.0962 113.792 32.5598 122.097 32.5598C124.899 32.5598 127.462 33.2091 129.308 33.9952L128.487 39.1898C126.779 38.5405 124.523 37.9595 122.438 37.9595C118.611 37.9595 115.672 40.6935 115.672 44.692C115.672 48.9981 118.577 51.6637 122.575 51.6637C125.036 51.6637 127.531 50.946 129.273 50.0233L128.932 55.3205Z" fill="white"/>
<path d="M139.698 57.0291C133.82 57.0291 130.06 52.9964 130.06 47.9043C130.06 41.992 134.093 38.0961 140.518 38.0961C146.43 38.0961 150.155 42.1287 150.155 47.2208C150.155 53.1331 146.157 57.0291 139.698 57.0291ZM140.039 42.368C137.921 42.368 136.417 44.5893 136.417 47.4601C136.417 50.4333 137.921 52.7572 140.21 52.7572C142.363 52.7572 143.799 50.5358 143.799 47.6651C143.799 44.6919 142.363 42.368 140.039 42.368Z" fill="white"/>
<path d="M164.406 56.6532V46.2981C164.406 43.94 163.347 42.8122 161.364 42.8122C160.373 42.8122 159.382 43.0856 158.699 43.4957V56.619H152.581V38.7112L158.562 38.2328L158.425 41.1718H158.63C159.929 39.4289 162.116 38.0961 164.714 38.0961C167.858 38.0961 170.557 40.0441 170.557 44.6577V56.6874H164.406V56.6532Z" fill="white"/>
<path d="M141.427 79.9658C141.73 80.1174 141.881 80.3069 141.881 80.5342C141.894 80.7616 141.825 80.9763 141.673 81.1784C141.534 81.3678 141.345 81.5131 141.105 81.6141C140.877 81.7151 140.669 81.7088 140.479 81.5952C140.454 81.6962 140.397 81.7657 140.309 81.8036C140.233 81.8288 140.183 81.8857 140.157 81.9741C138.932 82.1635 137.682 82.3972 136.406 82.6751C135.13 82.9529 133.855 83.1613 132.579 83.3003C131.594 83.2624 130.773 83.1171 130.116 82.8645C129.851 82.6372 129.649 82.353 129.51 82.012C129.384 81.6709 129.308 81.311 129.283 80.9321C129.257 80.5532 129.27 80.1869 129.321 79.8332C129.371 79.467 129.447 79.1512 129.548 78.886C130.205 78.0524 130.887 77.2566 131.594 76.4988C132.314 75.7284 133.129 75.0463 134.038 74.4527C134.303 74.1243 134.613 73.8465 134.966 73.6191C135.32 73.3791 135.642 73.1139 135.933 72.8234C135.554 72.6845 135.156 72.615 134.739 72.615C134.322 72.615 133.912 72.6529 133.507 72.7287C133.103 72.7918 132.724 72.8739 132.371 72.975C132.017 73.076 131.708 73.1518 131.442 73.2023C131.24 73.1013 131 73.0444 130.723 73.0318C130.457 73.0192 130.192 72.9687 129.927 72.8802C129.775 72.7539 129.668 72.5897 129.605 72.3877C129.554 72.1856 129.523 71.9772 129.51 71.7625C129.497 71.5477 129.491 71.3457 129.491 71.1562C129.491 70.9541 129.466 70.7899 129.415 70.6636C129.516 70.4994 129.605 70.3352 129.681 70.171C129.769 70.0068 129.87 69.8553 129.984 69.7163C130.577 69.5522 131.234 69.4195 131.954 69.3185C132.674 69.2048 133.4 69.1543 134.133 69.1669C134.865 69.1796 135.573 69.2743 136.255 69.4511C136.937 69.6153 137.543 69.8932 138.073 70.2847C138.137 70.6384 138.269 70.9225 138.471 71.1373C138.673 71.3393 138.92 71.4972 139.21 71.6109C139.349 71.8635 139.469 72.1224 139.57 72.3877C139.671 72.6403 139.741 72.9118 139.778 73.2023C139.526 73.8717 139.166 74.4401 138.699 74.9074C138.244 75.3621 137.783 75.7789 137.316 76.1578C137.063 76.3725 136.791 76.5557 136.501 76.7072C136.21 76.8588 135.958 77.0356 135.743 77.2377C135.693 77.2882 135.661 77.3577 135.648 77.4461C135.636 77.5219 135.604 77.5787 135.554 77.6166C135.326 77.8187 135.074 78.0018 134.796 78.166C134.518 78.3176 134.265 78.4944 134.038 78.6965C133.874 78.8354 133.735 78.987 133.621 79.1512C133.52 79.3154 133.381 79.4606 133.204 79.5869C133.432 79.6627 133.653 79.6943 133.867 79.6817C134.095 79.669 134.322 79.6438 134.549 79.6059C134.789 79.568 135.029 79.5301 135.269 79.4922C135.522 79.4543 135.781 79.4417 136.046 79.4543C136.412 79.328 136.817 79.2207 137.259 79.1322C137.701 79.0312 138.143 78.9933 138.585 79.0186C138.964 78.867 139.324 78.7597 139.665 78.6965C140.018 78.6207 140.353 78.6018 140.669 78.6397C140.833 78.7028 140.953 78.8165 141.029 78.9807C141.117 79.1449 141.25 79.2586 141.427 79.3217C141.389 79.4606 141.376 79.5617 141.389 79.6248C141.414 79.688 141.427 79.8017 141.427 79.9658Z" fill="url(#paint0_linear)"/>
<path d="M146.91 83.5844C146.417 83.6602 145.962 83.635 145.545 83.5087C145.129 83.3824 144.756 83.1803 144.428 82.9024C144.112 82.6245 143.834 82.2961 143.594 81.9172C143.354 81.5383 143.158 81.1342 143.007 80.7047C142.906 79.808 142.937 78.9933 143.101 78.2608C143.266 77.5282 143.499 76.8525 143.802 76.2336C144.118 75.6147 144.472 75.04 144.863 74.5096C145.255 73.9664 145.634 73.4486 146 72.956C146.076 72.9939 146.139 72.9939 146.19 72.956C146.24 72.9055 146.284 72.8487 146.322 72.7855C146.373 72.7224 146.417 72.6592 146.455 72.5961C146.505 72.5329 146.569 72.4887 146.644 72.4634C146.695 72.3498 146.758 72.255 146.834 72.1793C146.91 72.0908 146.985 72.0087 147.061 71.933C147.15 71.8572 147.232 71.7814 147.307 71.7056C147.383 71.6298 147.446 71.5351 147.497 71.4214C147.611 71.3962 147.712 71.352 147.8 71.2888C147.888 71.213 147.97 71.1373 148.046 71.0615C148.122 70.9857 148.198 70.9162 148.274 70.8531C148.362 70.7773 148.463 70.7205 148.577 70.6826V70.4363C148.829 70.2973 149.012 70.1521 149.126 70.0005C149.24 69.8363 149.379 69.6342 149.543 69.3943C149.669 69.369 149.77 69.3627 149.846 69.3753C149.922 69.3753 150.029 69.3627 150.168 69.3374C150.282 69.1227 150.383 68.9585 150.471 68.8449C150.56 68.7312 150.692 68.6049 150.869 68.4659C151.033 68.567 151.216 68.6365 151.419 68.6743C151.621 68.6996 151.791 68.7943 151.93 68.9585C151.943 69.1227 151.981 69.249 152.044 69.3374C152.12 69.4258 152.202 69.5079 152.29 69.5837C152.378 69.6469 152.461 69.7227 152.536 69.8111C152.612 69.8869 152.663 69.9942 152.688 70.1331C152.738 70.1331 152.77 70.1205 152.783 70.0953C152.808 70.07 152.846 70.0637 152.896 70.0763C152.922 70.19 152.947 70.2784 152.972 70.3415C152.997 70.4047 153.023 70.4678 153.048 70.531C153.073 70.5815 153.098 70.6384 153.124 70.7015C153.162 70.752 153.193 70.8278 153.218 70.9289C153.155 71.0804 153.098 71.2446 153.048 71.4214C153.01 71.5983 152.922 71.7183 152.783 71.7814C152.783 71.8824 152.814 71.9393 152.877 71.9519C152.953 71.9645 152.997 72.0151 153.01 72.1035C153.01 72.2298 152.991 72.3308 152.953 72.4066C153.282 73.0255 153.572 73.6759 153.825 74.358C154.09 75.0274 154.387 75.6652 154.715 76.2715C154.69 76.4609 154.696 76.6441 154.734 76.8209C154.785 76.9977 154.835 77.1745 154.886 77.3514C154.949 77.5156 155.006 77.6798 155.056 77.844C155.119 78.0082 155.163 78.1787 155.189 78.3555C155.214 78.5828 155.214 78.8291 155.189 79.0944C155.176 79.347 155.132 79.5933 155.056 79.8332C154.993 80.0732 154.905 80.2942 154.791 80.4963C154.677 80.6984 154.545 80.85 154.393 80.951C154.368 80.9384 154.298 80.9763 154.185 81.0647C154.071 81.1405 153.938 81.2415 153.787 81.3678C153.648 81.4941 153.503 81.6331 153.351 81.7846C153.199 81.9362 153.067 82.0688 152.953 82.1825C152.802 82.2835 152.631 82.3593 152.442 82.4098C152.265 82.4477 152.082 82.4919 151.892 82.5424C151.741 82.6435 151.557 82.7508 151.343 82.8645C151.141 82.9656 150.926 83.054 150.699 83.1297C150.484 83.2055 150.269 83.2624 150.054 83.3003C149.84 83.3508 149.65 83.3634 149.486 83.3381C149.069 83.515 148.665 83.6286 148.274 83.6792C147.895 83.7423 147.44 83.7107 146.91 83.5844ZM147.326 76.423C147.225 76.7262 147.105 76.9977 146.966 77.2377C146.827 77.4777 146.689 77.724 146.55 77.9766C146.423 78.2292 146.31 78.5007 146.209 78.7912C146.12 79.0691 146.07 79.3975 146.057 79.7764C146.259 79.9911 146.499 80.1237 146.777 80.1742C147.067 80.2248 147.358 80.2311 147.648 80.1932C147.952 80.1553 148.248 80.1048 148.539 80.0416C148.829 79.9785 149.095 79.9406 149.335 79.928C149.335 79.8143 149.379 79.7638 149.467 79.7764C149.884 79.7259 150.276 79.5743 150.642 79.3217C151.021 79.0565 151.412 78.7912 151.816 78.526C151.867 78.3618 151.93 78.2229 152.006 78.1092C152.094 77.9955 152.138 77.8313 152.138 77.6166C152.088 77.4777 152.056 77.3766 152.044 77.3135C152.031 77.2377 152.025 77.1177 152.025 76.9535C151.76 76.4736 151.526 75.9557 151.324 75.4C151.134 74.8316 150.913 74.3075 150.661 73.8275C150.635 73.8907 150.591 73.9538 150.528 74.017C150.465 74.0801 150.396 74.0675 150.32 73.9791C150.257 74.2317 150.143 74.3454 149.979 74.3201C149.827 74.2948 149.682 74.2191 149.543 74.0928C149.189 74.459 148.836 74.819 148.482 75.1726C148.128 75.5137 147.813 75.9115 147.535 76.3662C147.484 76.4041 147.453 76.4167 147.44 76.4041C147.427 76.3788 147.389 76.3852 147.326 76.423Z" fill="url(#paint1_linear)"/>
<path d="M171.243 79.9658C171.546 80.1174 171.698 80.3069 171.698 80.5342C171.71 80.7616 171.641 80.9763 171.489 81.1784C171.35 81.3678 171.161 81.5131 170.921 81.6141C170.694 81.7151 170.485 81.7088 170.296 81.5952C170.271 81.6962 170.214 81.7657 170.125 81.8036C170.05 81.8288 169.999 81.8857 169.974 81.9741C168.749 82.1635 167.498 82.3972 166.223 82.6751C164.947 82.9529 163.671 83.1613 162.396 83.3003C161.41 83.2624 160.589 83.1171 159.933 82.8645C159.667 82.6372 159.465 82.353 159.326 82.012C159.2 81.6709 159.124 81.311 159.099 80.9321C159.074 80.5532 159.086 80.1869 159.137 79.8332C159.187 79.467 159.263 79.1512 159.364 78.886C160.021 78.0524 160.703 77.2566 161.41 76.4988C162.13 75.7284 162.945 75.0463 163.854 74.4527C164.12 74.1243 164.429 73.8465 164.783 73.6191C165.136 73.3791 165.458 73.1139 165.749 72.8234C165.37 72.6845 164.972 72.615 164.555 72.615C164.139 72.615 163.728 72.6529 163.324 72.7287C162.92 72.7918 162.541 72.8739 162.187 72.975C161.834 73.076 161.524 73.1518 161.259 73.2023C161.057 73.1013 160.817 73.0444 160.539 73.0318C160.274 73.0192 160.008 72.9687 159.743 72.8802C159.592 72.7539 159.484 72.5897 159.421 72.3877C159.371 72.1856 159.339 71.9772 159.326 71.7625C159.314 71.5477 159.307 71.3457 159.307 71.1562C159.307 70.9541 159.282 70.7899 159.232 70.6636C159.333 70.4994 159.421 70.3352 159.497 70.171C159.585 70.0068 159.686 69.8553 159.8 69.7163C160.394 69.5522 161.05 69.4195 161.77 69.3185C162.49 69.2048 163.217 69.1543 163.949 69.1669C164.682 69.1796 165.389 69.2743 166.071 69.4511C166.753 69.6153 167.359 69.8932 167.89 70.2847C167.953 70.6384 168.086 70.9225 168.288 71.1373C168.49 71.3393 168.736 71.4972 169.026 71.6109C169.165 71.8635 169.285 72.1224 169.386 72.3877C169.488 72.6403 169.557 72.9118 169.595 73.2023C169.342 73.8717 168.982 74.4401 168.515 74.9074C168.06 75.3621 167.599 75.7789 167.132 76.1578C166.879 76.3725 166.608 76.5557 166.317 76.7072C166.027 76.8588 165.774 77.0356 165.559 77.2377C165.509 77.2882 165.477 77.3577 165.465 77.4461C165.452 77.5219 165.421 77.5787 165.37 77.6166C165.143 77.8187 164.89 78.0018 164.612 78.166C164.334 78.3176 164.082 78.4944 163.854 78.6965C163.69 78.8354 163.551 78.987 163.438 79.1512C163.337 79.3154 163.198 79.4606 163.021 79.5869C163.248 79.6627 163.469 79.6943 163.684 79.6817C163.911 79.669 164.139 79.6438 164.366 79.6059C164.606 79.568 164.846 79.5301 165.086 79.4922C165.338 79.4543 165.597 79.4417 165.863 79.4543C166.229 79.328 166.633 79.2207 167.075 79.1322C167.517 79.0312 167.959 78.9933 168.401 79.0186C168.78 78.867 169.14 78.7597 169.481 78.6965C169.835 78.6207 170.17 78.6018 170.485 78.6397C170.649 78.7028 170.769 78.8165 170.845 78.9807C170.934 79.1449 171.066 79.2586 171.243 79.3217C171.205 79.4606 171.193 79.5617 171.205 79.6248C171.23 79.688 171.243 79.8017 171.243 79.9658Z" fill="url(#paint2_linear)"/>
<path d="M175.873 69.5458C176.012 69.8237 176.189 70.051 176.404 70.2279C176.631 70.3921 176.852 70.5626 177.067 70.7394C177.332 71.232 177.496 71.7814 177.56 72.3877C177.623 72.9939 177.692 73.657 177.768 74.3769C177.768 74.9579 177.73 75.5073 177.654 76.0252C177.578 76.5304 177.477 77.0293 177.351 77.5219C177.237 78.0018 177.105 78.4818 176.953 78.9617C176.802 79.4417 176.656 79.9469 176.518 80.4774C176.341 80.6668 176.202 80.9384 176.101 81.292C176.012 81.6331 176.006 81.9678 176.082 82.2961C175.918 82.4982 175.753 82.694 175.589 82.8835C175.425 83.0729 175.242 83.2497 175.04 83.4139C174.964 83.3381 174.863 83.2939 174.737 83.2813C174.623 83.2813 174.503 83.2813 174.377 83.2813C174.25 83.2939 174.13 83.3066 174.017 83.3192C173.916 83.3445 173.84 83.3508 173.789 83.3381C173.726 83.2371 173.638 83.1297 173.524 83.0161C173.423 82.9024 173.328 82.7824 173.24 82.6561C173.164 82.5298 173.101 82.4098 173.051 82.2961C173.013 82.1698 173.025 82.0499 173.088 81.9362C173.088 81.7972 173.013 81.7278 172.861 81.7278C172.899 81.1468 172.994 80.5784 173.145 80.0227C173.297 79.4543 173.467 78.9049 173.657 78.3744C173.846 77.8313 174.029 77.2945 174.206 76.7641C174.396 76.2336 174.535 75.7094 174.623 75.1916C174.724 74.6737 174.749 74.1559 174.699 73.6381C174.661 73.1202 174.516 72.5961 174.263 72.0656C174.263 71.8888 174.257 71.7435 174.244 71.6298C174.244 71.5035 174.238 71.3962 174.225 71.3078C174.225 71.2067 174.219 71.112 174.206 71.0236C174.194 70.9352 174.168 70.8404 174.13 70.7394C174.194 70.5626 174.238 70.3984 174.263 70.2468C174.301 70.0953 174.301 69.9563 174.263 69.83C174.276 69.7416 174.301 69.6721 174.339 69.6216C174.377 69.5585 174.421 69.5016 174.471 69.4511C174.522 69.388 174.566 69.3311 174.604 69.2806C174.655 69.2174 174.686 69.1417 174.699 69.0533H175.116C175.255 69.1669 175.374 69.2743 175.476 69.3753C175.577 69.4637 175.709 69.5206 175.873 69.5458Z" fill="url(#paint3_linear)"/>
<path fill-rule="evenodd" clip-rule="evenodd" d="M10.7911 1.09156H119.147C119.627 1.09156 120.017 1.44484 120.017 1.88063V18.8456C120.017 19.2814 119.627 19.6347 119.147 19.6347H10.7911C10.3105 19.6347 9.9208 19.2814 9.9208 18.8456V1.88063C9.9208 1.44484 10.3105 1.09156 10.7911 1.09156ZM9.05048 1.88063C9.05048 1.00905 9.82979 0.30249 10.7911 0.30249H119.147C120.108 0.30249 120.887 1.00905 120.887 1.88063V18.8456C120.887 19.7172 120.108 20.4238 119.147 20.4238H10.7911C9.82979 20.4238 9.05048 19.7172 9.05048 18.8456V13.9068H3.31033C2.10866 13.9068 1.12968 14.8858 1.12968 16.0874V75.6889C1.12968 76.8906 2.10866 77.8695 3.31033 77.8695H117.915V78.8396H3.31033C1.57294 78.8396 0.159668 77.4263 0.159668 75.6889V16.0874C0.159668 14.35 1.57294 12.9368 3.31033 12.9368H9.05048V1.88063ZM56.4317 14.13C56.8919 14.325 57.4066 14.4225 57.9759 14.4225C58.5764 14.4225 59.0951 14.3133 59.5318 14.0949C59.9685 13.8687 60.3 13.5685 60.5262 13.1941C60.7523 12.8198 60.8654 12.4142 60.8654 11.9775C60.8654 11.4706 60.7445 11.0611 60.5028 10.7492C60.261 10.4372 59.9724 10.2032 59.6371 10.0473C59.3017 9.89128 58.8689 9.7353 58.3386 9.57932C57.9486 9.46234 57.6445 9.36095 57.4261 9.27516C57.2155 9.18158 57.0361 9.06459 56.888 8.92421C56.7476 8.77603 56.6774 8.59276 56.6774 8.37438C56.6774 8.06243 56.771 7.82456 56.9581 7.66078C57.1531 7.497 57.4105 7.41511 57.7302 7.41511C58.0968 7.41511 58.3893 7.5087 58.6076 7.69588C58.8338 7.87525 58.9547 8.10532 58.9703 8.38608H60.7718C60.7172 7.65298 60.4248 7.08366 59.8944 6.67811C59.3719 6.26477 58.6895 6.0581 57.8472 6.0581C57.2857 6.0581 56.7866 6.15558 56.3498 6.35056C55.9131 6.53773 55.5738 6.8107 55.3321 7.16945C55.0903 7.5282 54.9694 7.94934 54.9694 8.43288C54.9694 8.94761 55.0864 9.36095 55.3204 9.67291C55.5621 9.97707 55.8468 10.2071 56.1744 10.3631C56.5097 10.5113 56.9425 10.6634 57.4729 10.8194C57.8628 10.9285 58.167 11.0299 58.3854 11.1235C58.6115 11.2093 58.7987 11.3302 58.9469 11.4862C59.0951 11.6421 59.1691 11.841 59.1691 12.0828C59.1691 12.3791 59.06 12.6209 58.8416 12.8081C58.6232 12.9875 58.323 13.0772 57.9408 13.0772C57.5665 13.0772 57.2701 12.9797 57.0517 12.7847C56.8412 12.5897 56.7242 12.3246 56.7008 11.9892H54.946C54.9538 12.4883 55.0903 12.9212 55.3555 13.2877C55.6206 13.6543 55.9794 13.935 56.4317 14.13ZM25.4516 10.8428C25.1553 10.4684 24.777 10.2383 24.3169 10.1525C24.738 10.02 25.0734 9.79379 25.323 9.47404C25.5803 9.15428 25.709 8.75653 25.709 8.2808C25.709 7.87525 25.6037 7.5126 25.3932 7.19285C25.1904 6.87309 24.8862 6.62352 24.4807 6.44415C24.0829 6.26477 23.6072 6.17508 23.0535 6.17508H19.6843V14.3406H23.2056C23.7593 14.3406 24.2389 14.247 24.6445 14.0598C25.05 13.8726 25.3581 13.6153 25.5686 13.2877C25.787 12.9524 25.8962 12.5663 25.8962 12.1296C25.8962 11.646 25.748 11.2171 25.4516 10.8428ZM22.8195 9.54423H21.3221V7.497H22.8195C23.2094 7.497 23.5097 7.58669 23.7203 7.76607C23.9309 7.94544 24.0361 8.19891 24.0361 8.52647C24.0361 8.85402 23.9309 9.10749 23.7203 9.28686C23.5097 9.45844 23.2094 9.54423 22.8195 9.54423ZM23.8958 12.7262C23.6774 12.9134 23.3693 13.007 22.9716 13.007H21.3221V10.8077H22.9365C23.3342 10.8077 23.6501 10.909 23.8841 11.1118C24.118 11.3068 24.235 11.5798 24.235 11.9307C24.235 12.2739 24.1219 12.539 23.8958 12.7262ZM28.8159 11.2288V6.17508H27.1781V11.2171C27.1781 11.9112 27.3224 12.5 27.6109 12.9836C27.8995 13.4593 28.2894 13.8181 28.7808 14.0598C29.2799 14.3016 29.8336 14.4225 30.4419 14.4225C31.0581 14.4225 31.6157 14.3016 32.1148 14.0598C32.6217 13.8181 33.0234 13.4593 33.3197 12.9836C33.6239 12.5 33.776 11.9112 33.776 11.2171V6.17508H32.1265V11.2288C32.1265 11.7825 31.9822 12.2076 31.6937 12.5039C31.4051 12.7925 30.9957 12.9368 30.4653 12.9368C29.9428 12.9368 29.5373 12.7925 29.2487 12.5039C28.9601 12.2076 28.8159 11.7825 28.8159 11.2288ZM36.9962 6.17508V14.3406H35.3584V6.17508H36.9962ZM42.9427 13.0421H40.2521V6.17508H38.6143V14.3406H42.9427V13.0421ZM46.8381 6.17508C47.696 6.17508 48.4486 6.34276 49.0959 6.67811C49.751 7.01347 50.254 7.4931 50.605 8.11702C50.9637 8.73314 51.1431 9.45064 51.1431 10.2695C51.1431 11.0884 50.9637 11.8059 50.605 12.422C50.254 13.0304 49.751 13.5022 49.0959 13.8375C48.4486 14.1729 47.696 14.3406 46.8381 14.3406H43.9837V6.17508H46.8381ZM46.7796 12.9485C47.6375 12.9485 48.3004 12.7145 48.7683 12.2466C49.2363 11.7786 49.4702 11.1196 49.4702 10.2695C49.4702 9.41945 49.2363 8.75653 48.7683 8.2808C48.3004 7.79726 47.6375 7.5555 46.7796 7.5555H45.6215V12.9485H46.7796ZM63.9231 7.497V9.54423H66.6722V10.8428H63.9231V13.007H67.0232V14.3406H62.2853V6.16338H67.0232V7.497H63.9231ZM68.6519 8.09362C68.2932 8.72534 68.1138 9.44284 68.1138 10.2461C68.1138 11.0494 68.2932 11.7669 68.6519 12.3986C69.0185 13.0304 69.5137 13.5256 70.1376 13.8843C70.7693 14.2353 71.4751 14.4108 72.255 14.4108C73.1753 14.4108 73.9747 14.1807 74.6532 13.7206C75.3395 13.2526 75.8191 12.6014 76.0921 11.7669H74.2087C74.0215 12.1569 73.7563 12.4532 73.4132 12.656C73.0778 12.851 72.6879 12.9485 72.2433 12.9485C71.7676 12.9485 71.3425 12.8393 70.9682 12.6209C70.6016 12.3947 70.3131 12.0789 70.1025 11.6733C69.8997 11.26 69.7983 10.7843 69.7983 10.2461C69.7983 9.70021 69.8997 9.22447 70.1025 8.81892C70.3131 8.41338 70.6016 8.10142 70.9682 7.88305C71.3425 7.65688 71.7676 7.5438 72.2433 7.5438C72.6879 7.5438 73.0778 7.64128 73.4132 7.83626C73.7563 8.03123 74.0215 8.32369 74.2087 8.71364H76.0921C75.8191 7.88695 75.3395 7.23964 74.6532 6.7717C73.9669 6.30376 73.1675 6.0698 72.255 6.0698C71.4751 6.0698 70.7693 6.24917 70.1376 6.60792C69.5137 6.95888 69.0185 7.45411 68.6519 8.09362ZM79.1054 6.17508V11.2288C79.1054 11.7825 79.2496 12.2076 79.5382 12.5039C79.8268 12.7925 80.2323 12.9368 80.7548 12.9368C81.2852 12.9368 81.6946 12.7925 81.9832 12.5039C82.2717 12.2076 82.416 11.7825 82.416 11.2288V6.17508H84.0655V11.2171C84.0655 11.9112 83.9134 12.5 83.6092 12.9836C83.3129 13.4593 82.9112 13.8181 82.4043 14.0598C81.9052 14.3016 81.3475 14.4225 80.7314 14.4225C80.1231 14.4225 79.5694 14.3016 79.0703 14.0598C78.5789 13.8181 78.189 13.4593 77.9004 12.9836C77.6119 12.5 77.4676 11.9112 77.4676 11.2171V6.17508H79.1054ZM88.0578 11.1586L89.8593 14.3406H91.7544L89.8008 11.0299C90.4169 10.8661 90.881 10.5698 91.1929 10.1408C91.5049 9.70411 91.6609 9.21667 91.6609 8.67854C91.6609 8.21061 91.5478 7.78946 91.3216 7.41511C91.1032 7.03297 90.7718 6.73271 90.3272 6.51434C89.8827 6.28817 89.3446 6.17508 88.7129 6.17508H85.6479V14.3406H87.2857V11.1586H88.0578ZM88.6544 9.93028H87.2857V7.5321H88.6544C89.0989 7.5321 89.4304 7.63738 89.6487 7.84796C89.8671 8.05073 89.9763 8.33929 89.9763 8.71364C89.9763 9.09579 89.8671 9.39605 89.6487 9.61442C89.4304 9.82499 89.0989 9.93028 88.6544 9.93028ZM94.78 7.497V9.54423H97.5291V10.8428H94.78V13.007H97.88V14.3406H93.1422V6.16338H97.88V7.497H94.78ZM103.697 13.0421H101.006V6.17508H99.3684V14.3406H103.697V13.0421ZM111.23 6.17508L108.47 11.4979V14.3406H106.832V11.4979L104.059 6.17508H105.908L107.662 9.90688L109.405 6.17508H111.23ZM129.31 13.9068H198.69C199.891 13.9068 200.87 14.8858 200.87 16.0874V75.6547C200.87 76.8564 199.891 77.8354 198.69 77.8354H191.069V78.8054H198.69C200.427 78.8054 201.84 77.3921 201.84 75.6547V16.0874C201.84 14.35 200.427 12.9368 198.69 12.9368H129.31V13.9068Z" fill="url(#paint4_linear)"/>
<defs>
<linearGradient id="paint0_linear" x1="101.04" y1="65.3171" x2="177.994" y2="83.4239" gradientUnits="userSpaceOnUse">
<stop stop-color="#FFDD64"/>
<stop offset="1" stop-color="#FF27CC"/>
</linearGradient>
<linearGradient id="paint1_linear" x1="101.04" y1="65.3171" x2="177.994" y2="83.4239" gradientUnits="userSpaceOnUse">
<stop stop-color="#FFDD64"/>
<stop offset="1" stop-color="#FF27CC"/>
</linearGradient>
<linearGradient id="paint2_linear" x1="101.04" y1="65.3171" x2="177.994" y2="83.4239" gradientUnits="userSpaceOnUse">
<stop stop-color="#FFDD64"/>
<stop offset="1" stop-color="#FF27CC"/>
</linearGradient>
<linearGradient id="paint3_linear" x1="101.04" y1="65.3171" x2="177.994" y2="83.4239" gradientUnits="userSpaceOnUse">
<stop stop-color="#FFDD64"/>
<stop offset="1" stop-color="#FF27CC"/>
</linearGradient>
<linearGradient id="paint4_linear" x1="9.05047" y1="0.302486" x2="91.6523" y2="53.2519" gradientUnits="userSpaceOnUse">
<stop stop-color="#FFDD64"/>
<stop offset="1" stop-color="#FF27CC"/>
</linearGradient>
</defs>
</svg>
