<svg width="146" height="75" viewBox="0 0 146 75" fill="none" xmlns="http://www.w3.org/2000/svg">
<path d="M130.634 41.4807H130.075V51.1434H123.136V27.0852L130.075 16.2393V38.687C131.456 36.9944 136.109 30.569 136.109 30.569H144.675L136.553 39.1636L144.954 51.1599H136.191L130.634 41.4807ZM111.298 39.9031L114.142 30.6348H121.015L112.959 51.0777C110.558 57.2237 107.122 61.3813 101.992 61.3813C100.019 61.3813 98.3584 60.8719 97.4869 60.3789L100.249 56.1063C100.66 56.1556 101.088 56.172 101.515 56.172C103.883 56.172 105.659 53.8713 106.809 51.1434L98.3584 30.6348H106.135L109.177 39.7881C109.769 41.53 110.196 44.8495 110.196 44.8495C110.196 44.8495 110.739 41.645 111.298 39.9031ZM90.3348 39.4265C90.3348 36.7479 89.151 35.4826 86.8985 35.4826C85.7969 35.4826 84.6459 35.7948 83.8567 36.2714V51.1434H76.9183V30.832L83.7087 30.2732L83.5443 33.5927H83.7745C85.2378 31.6208 87.7205 30.1253 90.6801 30.1253C94.2315 30.1253 97.3061 32.3274 97.3061 37.5367V51.1434H90.3348V39.4265ZM57.0566 50.0917L57.6814 45.3589C59.8517 46.4271 62.3016 46.9365 64.3568 46.9365C65.853 46.9365 66.8395 46.4271 66.8395 45.5233C66.8395 42.9268 57.4841 43.5513 57.4841 36.7644C57.4841 32.426 61.463 30.1418 66.4449 30.1418C68.9276 30.1418 71.4925 30.8155 73.1531 31.4071L72.479 36.0577C70.7362 35.384 68.3686 34.7595 66.3956 34.7595C65.1789 34.7595 64.1924 35.1868 64.1924 35.9756C64.1924 38.5391 73.745 38.0297 73.745 44.6523C73.745 49.0564 69.8319 51.5871 64.4719 51.5871C61.5124 51.5871 59.1119 51.0777 57.0566 50.0917Z" fill="#091C30"/>
<path d="M41.9518 20.1076H7.43823C7.43823 17.9454 10.5579 11.4094 16.7972 0.499756C16.7972 0.499756 17.6611 6.25348 19.3888 17.7609L29.9329 17.7612L32.5209 0.499756C38.8082 11.5541 41.9518 18.09 41.9518 20.1076Z" fill="white"/>
<path d="M24.6422 74.8087L1.1745 58.3492V19.9339C1.1745 19.9339 9.85126 16.7288 24.6723 16.7288C39.4934 16.7288 48.1067 19.9339 48.1067 19.9339V58.3492L24.6422 74.8087Z" fill="white"/>
<path d="M24.6422 72.4952L2.67389 57.1517V21.4758C2.67389 21.4758 10.8891 18.4993 24.6422 18.4993V72.4952Z" fill="#DBDBDB"/>
<path d="M24.6721 18.4993C24.6619 18.4993 24.6524 18.4996 24.6422 18.4993V72.4498H24.6425L46.4178 57.1508V21.4758C46.4178 21.4758 38.4252 18.4993 24.6721 18.4993Z" fill="#C6C6C6"/>
<path d="M36.5291 64.101L34.6766 47.9873H24.4955C24.4955 60.7767 24.4955 68.9585 24.4955 72.5328L24.6422 72.6715C28.6031 69.9592 32.5654 67.1024 36.5291 64.101Z" fill="#3B3B63"/>
<path d="M12.7617 64.2282L24.6422 72.6715L24.6481 47.4966H14.359L12.7617 64.2282Z" fill="#53537A"/>
<path d="M29.726 59.4585C29.726 62.2269 27.1017 63.5993 24.6942 63.5993C22.2868 63.5993 19.6094 62.2269 19.6094 59.4585" fill="#BC9375"/>
<path d="M24.6676 60.8903C22.7348 60.8903 21.795 59.4931 21.795 56.6208H22.7165C22.7165 59.9835 24.0339 59.9835 24.6676 59.9835C25.301 59.9835 26.6187 59.9835 26.6187 56.6208H27.5399C27.5399 59.4931 26.6001 60.8903 24.6676 60.8903Z" fill="white"/>
<path d="M24.6422 57.322C25.2369 58.8625 26.3863 59.6327 28.0904 59.6327C29.759 59.6327 31.5001 58.7675 32.293 56.6294C33.4005 53.6386 33.3894 49.4757 33.3894 49.4757C33.3894 49.4757 38.3109 43.407 38.3109 41.355C38.3109 41.355 33.7547 41.355 24.6422 41.355V57.322Z" fill="#C49A7E"/>
<path d="M10.7753 41.355C10.7753 43.7314 15.6542 49.4757 15.6542 49.4757C15.6542 49.4757 15.6422 53.6374 16.7509 56.6294C17.542 58.7661 19.2849 59.6327 20.9538 59.6327C22.6579 59.6327 23.8874 58.8625 24.6422 57.322V41.355H10.7753Z" fill="#D8B7A0"/>
<path d="M37.7234 27.6906C33.9296 23.8591 32.9807 15.8694 32.9807 15.8694C32.2724 18.387 30.7328 25.8098 30.7328 25.8098C30.7328 25.8098 27.7424 24.8573 24.5213 24.8522C24.4156 24.8522 24.4156 34.8534 24.5213 54.8557L27.5879 52.6725L28.158 42.0776L31.4231 45.7471L35.6293 46.9578C35.6293 46.9578 37.2031 45.8524 37.2031 45.8566C37.8713 44.9348 38.0929 44.1496 38.2545 43.7421C38.8387 42.2596 37.527 30.9226 37.527 30.9226C37.0613 29.9624 37.7234 27.6906 37.7234 27.6906Z" fill="#3B3B63"/>
<path d="M18.6317 25.8091C18.6317 25.8091 17.0915 18.3865 16.3838 15.8687C16.3838 15.8687 15.4355 23.8584 11.6411 27.6899C11.6411 27.6899 12.3032 29.962 11.8375 30.9219C11.8375 30.9219 10.5258 42.2595 11.11 43.7396C11.2713 44.1474 11.4947 44.9323 12.162 45.8541C12.162 45.8499 13.7367 46.9556 13.7367 46.9556L17.942 45.7446L21.2065 42.0756L21.7781 52.6706L24.6453 54.796V24.7959C21.4122 24.8012 18.6317 25.8091 18.6317 25.8091Z" fill="#53537A"/>
<path d="M35.0685 8.46499C35.698 9.6205 41.1092 20.303 41.1092 24.0023L38.7091 30.4412C39.1152 34.0745 39.9228 41.9689 39.3131 43.5112C38.9367 44.4652 37.5021 46.4277 36.2749 48.017L37.9526 63.0996L35.6847 64.7081L34.4237 53.6877C34.2504 54.8061 33.9898 56.0002 33.5925 57.0725C33.0671 58.4918 32.1386 59.5674 30.9511 60.2045C30.8815 63.607 27.6958 65.4426 24.6942 65.4426C21.6678 65.4426 18.4554 63.6084 18.3846 60.2071C17.1947 59.5689 16.265 58.4933 15.739 57.0725C15.3576 56.0416 15.1006 54.9002 14.9263 53.8193L13.7201 64.9107L11.4399 63.276L13.0865 48.063C11.8498 46.4667 10.3876 44.4749 10.0076 43.5103C9.39795 41.9677 10.1741 34.0745 10.5807 30.4406L8.03796 23.7761V23.5589C8.03796 19.8596 13.591 9.6205 14.2213 8.46499L16.0197 5.22095C17.1147 12.7371 17.6618 16.4985 17.661 16.5052L18.5466 22.5958L19.7116 24.4822C20.8311 24.1101 22.7315 23.5934 24.6559 23.5934C26.5823 23.5934 28.4956 24.1119 29.6199 24.4834L30.7843 22.5961L33.3073 5.22095L35.0685 8.46499ZM24.6942 63.0242C26.0227 63.0242 27.9147 62.4326 28.387 60.8642C28.3364 60.8657 28.2875 60.8699 28.2368 60.8699C27.9783 60.8699 27.7366 60.8459 27.5021 60.8144C26.8168 61.753 25.7492 62.0378 24.6678 62.0378C23.5883 62.0378 22.5228 61.7504 21.8387 60.8132C21.6027 60.8462 21.3583 60.8699 21.0977 60.8699C21.0479 60.8699 20.9999 60.8657 20.9511 60.8642C21.4282 62.4326 23.3457 63.0242 24.6942 63.0242ZM23.1384 60.4464C23.5505 60.7503 24.0597 60.9194 24.6687 60.9194C25.2745 60.9194 25.7813 60.7492 26.1928 60.4464C25.8647 60.3027 25.5678 60.1316 25.306 59.9448C25.0691 60.0138 24.8424 60.0124 24.6675 60.0124C24.4918 60.0124 24.2627 60.0124 24.024 59.9433C23.7628 60.1316 23.4665 60.3027 23.1384 60.4464ZM32.5782 48.7458C34.2105 46.75 36.6678 43.5354 37.0238 42.6357C37.2922 41.7095 36.8342 35.569 36.2516 30.4223L36.2195 30.137L36.7011 28.8584C35.1132 27.1919 34.0054 24.908 33.2485 22.7513L33.1501 23.4288L30.6431 27.4855L29.664 27.0747C29.64 27.0644 27.0837 26.0107 24.6574 26.0107C22.2154 26.0107 19.7005 27.0635 19.6759 27.0738L18.6953 27.4881L16.1853 23.4297L16.1109 22.9097C15.3459 25.0455 14.2369 27.2892 12.6565 28.9195L13.1165 30.1379L13.0844 30.4235C12.5015 35.569 12.0435 41.7095 12.3209 42.6591C12.6679 43.5369 15.1255 46.7514 16.7569 48.7458L17.0292 49.079L17.0276 49.506C17.0276 49.5461 17.0324 53.4945 18.0503 56.2422C18.7892 58.2351 20.4284 58.4482 21.0998 58.4482C22.7876 58.4482 23.5016 56.9235 23.531 56.8586C23.9265 56.0925 24.1243 54.8339 24.1243 53.0828H25.1447C25.1447 54.4897 25.3574 55.751 25.7828 56.8669C25.8086 56.9221 26.5406 58.452 28.2368 58.452C28.9067 58.452 30.5465 58.2366 31.2848 56.2437C32.3059 53.4862 32.3071 49.5461 32.3071 49.5074L32.306 49.0805L32.5782 48.7458Z" fill="#333152"/>
<path d="M32.3 38.0139H28.6144H27.386V38.065C27.386 39.754 28.8699 41.1222 30.6104 41.1222C32.3516 41.1222 33.8354 39.7537 33.8354 38.065V38.0139H32.3Z" fill="#333152"/>
<path d="M28.6144 38.0139V38.065C28.6144 39.0697 29.4361 39.8838 30.4575 39.8838C31.4789 39.8838 32.3003 39.0697 32.3003 38.065V38.0139H28.6144Z" fill="white"/>
<path d="M30.1624 38.0139C30.154 38.0139 30.1468 38.018 30.1393 38.0195C30.2463 38.0417 30.3057 38.2807 30.2826 38.4397C30.2481 38.6828 30.0376 38.8516 29.7965 38.8558C29.8667 39.1736 30.13 39.4291 30.4796 39.4775C30.9265 39.5397 31.3394 39.2382 31.4027 38.7988C31.4483 38.4754 31.2902 38.0139 31.026 38.0139H30.1624Z" fill="#333152"/>
<path d="M20.438 38.0139H16.753H15.5244V38.065C15.5244 39.754 17.0085 41.1222 18.7487 41.1222C20.4899 41.1222 21.974 39.7537 21.974 38.065V38.0139H20.438Z" fill="#333152"/>
<path d="M16.753 38.0139V38.065C16.753 39.0697 17.5753 39.8838 18.5952 39.8838C19.6169 39.8838 20.4383 39.0697 20.4383 38.065V38.0139H16.753Z" fill="white"/>
<path d="M19.1647 38.0139H18.3001C18.2926 38.0139 18.2845 38.018 18.2776 38.0195C18.3844 38.0417 18.4435 38.2807 18.421 38.4397C18.3862 38.6828 18.1769 38.8516 17.9343 38.8558C18.0053 39.1736 18.2686 39.4291 18.6177 39.4775C19.0642 39.5397 19.4781 39.2382 19.5404 38.7988C19.5866 38.4754 19.4289 38.0139 19.1647 38.0139Z" fill="#333152"/>
<path d="M31.9293 36.5723C32.1357 36.3498 33.8873 34.394 31.5446 34.394C29.4277 34.394 27.9046 36.0748 27.5009 36.5723H31.9293Z" fill="#C49A7E"/>
<path d="M21.8244 36.5723C21.421 36.0748 19.8979 34.394 17.7804 34.394C15.4389 34.394 17.1905 36.3498 17.3956 36.5723H21.8244Z" fill="#D8B7A0"/>
<path d="M10.5621 23.362C10.7013 21.4431 12.73 16.8456 14.6652 12.9709L15.181 16.5136C14.9843 17.8382 14.0852 23.033 11.6735 26.3074L10.5621 23.362Z" fill="#D8B7A0"/>
<path d="M34.1953 16.2379L34.6706 12.9714C36.6054 16.8458 38.6354 21.4436 38.7745 23.3625L37.6892 26.238C35.0835 22.6333 34.266 16.7735 34.1953 16.2379Z" fill="#C49A7E"/>
<mask id="mask0" style="mask-type:alpha" maskUnits="userSpaceOnUse" x="21" y="51" width="8" height="6">
<path d="M22.8608 55.2343C21.952 54.5558 21.0198 53.6997 21.0198 53.043C21.0198 52.6116 21.795 51.282 21.795 51.282H27.5594C27.5594 51.282 28.3154 52.4608 28.3154 53.043C28.3154 53.6545 27.3744 54.487 26.4355 55.1655C26.1159 54.624 25.7093 54.53 25.5214 54.9568C25.4244 55.178 25.4053 55.4964 25.4527 55.8296C24.9414 56.1546 24.5677 56.364 24.5677 56.364C24.5677 56.364 24.2791 56.1981 23.8666 55.9312C23.9331 55.5619 23.9203 55.2003 23.8132 54.9568C23.6237 54.5242 23.2089 54.6266 22.8869 55.1876C22.878 55.203 22.8693 55.2185 22.8608 55.2343Z" fill="white"/>
</mask>
<g mask="url(#mask0)">
<path d="M22.8608 55.2343C21.952 54.5558 21.0198 53.6997 21.0198 53.043C21.0198 52.6116 21.795 51.282 21.795 51.282H27.5594C27.5594 51.282 28.3154 52.4608 28.3154 53.043C28.3154 53.6545 27.3744 54.487 26.4355 55.1655C26.1159 54.624 25.7093 54.53 25.5214 54.9568C25.4244 55.178 25.4053 55.4964 25.4527 55.8296C24.9414 56.1546 24.5677 56.364 24.5677 56.364C24.5677 56.364 24.2791 56.1981 23.8666 55.9312C23.9331 55.5619 23.9203 55.2003 23.8132 54.9568C23.6237 54.5242 23.2089 54.6266 22.8869 55.1876C22.878 55.203 22.8693 55.2185 22.8608 55.2343Z" fill="#333152"/>
</g>
</svg>
