<svg width="100" height="52" viewBox="0 0 100 52" fill="none" xmlns="http://www.w3.org/2000/svg">
<g clip-path="url(#clip0)">
<path d="M89.9054 28.7212H89.5184V35.4116H84.7142V18.7538L89.5184 11.2441V26.7869C90.4746 25.6149 93.6964 21.166 93.6964 21.166H99.6276L94.0037 27.1168L99.8211 35.423H93.7533L89.9054 28.7212ZM76.5176 27.6289L78.487 21.2115H83.2456L77.6674 35.3661C76.0053 39.6216 73.626 42.5003 70.0741 42.5003C68.708 42.5003 67.5582 42.1476 66.9548 41.8063L68.8673 38.8479C69.1519 38.882 69.4479 38.8934 69.7439 38.8934C71.3833 38.8934 72.6128 37.3004 73.4097 35.4116L67.5582 21.2115H72.9429L75.049 27.5492C75.4588 28.7553 75.7548 31.0537 75.7548 31.0537C75.7548 31.0537 76.1305 28.835 76.5176 27.6289ZM62.0026 27.2989C62.0026 25.4442 61.183 24.5681 59.6233 24.5681C58.8606 24.5681 58.0637 24.7843 57.5173 25.1143V35.4116H52.7131V21.348L57.4148 20.9612L57.301 23.2596H57.4603C58.4735 21.8942 60.1926 20.8588 62.2417 20.8588C64.7007 20.8588 66.8296 22.3835 66.8296 25.9904V35.4116H62.0026V27.2989ZM38.9609 34.6834L39.3935 31.4065C40.8963 32.1461 42.5925 32.4988 44.0155 32.4988C45.0515 32.4988 45.7346 32.1461 45.7346 31.5203C45.7346 29.7225 39.2569 30.1549 39.2569 25.4556C39.2569 22.4517 42.0119 20.8701 45.4613 20.8701C47.1804 20.8701 48.9563 21.3367 50.1061 21.7463L49.6394 24.9663C48.4326 24.4998 46.7933 24.0675 45.4272 24.0675C44.5848 24.0675 43.9017 24.3633 43.9017 24.9094C43.9017 26.6845 50.5159 26.3317 50.5159 30.9172C50.5159 33.9666 47.8065 35.7189 44.0952 35.7189C42.0461 35.7189 40.384 35.3661 38.9609 34.6834Z" fill="#091C30"/>
<path d="M28.5021 13.9224H4.60498C4.60498 12.4252 6.76502 7.89977 11.0851 0.345947C11.0851 0.345947 11.6832 4.32981 12.8795 12.2975L20.1802 12.2977L21.9722 0.345947C26.3255 7.99993 28.5021 12.5254 28.5021 13.9224Z" fill="white"/>
<path d="M16.5171 51.7973L0.268066 40.4008V13.8021C0.268066 13.8021 6.27584 11.5829 16.5379 11.5829C26.8 11.5829 32.7638 13.8021 32.7638 13.8021V40.4008L16.5171 51.7973Z" fill="white"/>
<path d="M16.5169 50.1955L1.30615 39.5716V14.8697C1.30615 14.8697 6.99437 12.8088 16.5169 12.8088V50.1955Z" fill="#DBDBDB"/>
<path d="M16.5378 12.8088C16.5308 12.8088 16.5241 12.809 16.5171 12.8088V50.164H16.5173L31.5945 39.571V14.8697C31.5945 14.8697 26.0604 12.8088 16.5378 12.8088Z" fill="#C6C6C6"/>
<path d="M24.7475 44.3832L23.4649 33.2261H16.4155C16.4155 42.0815 16.4155 47.7465 16.4155 50.2214L16.5171 50.3174C19.2596 48.4394 22.0031 46.4614 24.7475 44.3832Z" fill="#3B3B63"/>
<path d="M8.29102 44.4713L16.5171 50.3174L16.5211 32.8864H9.39699L8.29102 44.4713Z" fill="#53537A"/>
<path d="M20.037 41.1688C20.037 43.0857 18.2199 44.0359 16.553 44.0359C14.886 44.0359 13.0322 43.0857 13.0322 41.1688" fill="#BC9375"/>
<path d="M16.5344 42.1601C15.1962 42.1601 14.5454 41.1927 14.5454 39.204H15.1835C15.1835 41.5323 16.0957 41.5323 16.5344 41.5323C16.9729 41.5323 17.8853 41.5323 17.8853 39.204H18.5232C18.5232 41.1927 17.8724 42.1601 16.5344 42.1601Z" fill="white"/>
<path d="M16.5171 39.6894C16.9288 40.7561 17.7247 41.2894 18.9046 41.2894C20.0599 41.2894 21.2655 40.6903 21.8145 39.2099C22.5813 37.1391 22.5736 34.2567 22.5736 34.2567C22.5736 34.2567 25.9813 30.0548 25.9813 28.6339C25.9813 28.6339 22.8265 28.6339 16.5171 28.6339V39.6894Z" fill="#C49A7E"/>
<path d="M6.91553 28.6339C6.91553 30.2793 10.2936 34.2567 10.2936 34.2567C10.2936 34.2567 10.2853 37.1382 11.053 39.2099C11.6007 40.6893 12.8076 41.2894 13.9631 41.2894C15.143 41.2894 15.9943 40.7561 16.517 39.6894V28.6339H6.91553Z" fill="#D8B7A0"/>
<path d="M25.5744 19.1728C22.9476 16.5198 22.2906 10.9878 22.2906 10.9878C21.8002 12.7309 20.7341 17.8705 20.7341 17.8705C20.7341 17.8705 18.6636 17.2109 16.4333 17.2075C16.3601 17.2075 16.3601 24.1322 16.4333 37.9818L18.5566 36.4701L18.9513 29.1342L21.2121 31.675L24.1245 32.5133C24.1245 32.5133 25.2142 31.748 25.2142 31.7508C25.6768 31.1126 25.8302 30.5689 25.9422 30.2868C26.3467 29.2603 25.4384 21.4106 25.4384 21.4106C25.116 20.7457 25.5744 19.1728 25.5744 19.1728Z" fill="#3B3B63"/>
<path d="M12.3553 17.8701C12.3553 17.8701 11.2888 12.7307 10.7988 10.9874C10.7988 10.9874 10.1423 16.5194 7.51498 19.1724C7.51498 19.1724 7.97345 20.7456 7.65098 21.4102C7.65098 21.4102 6.74276 29.2603 7.14725 30.2851C7.25896 30.5675 7.41365 31.1109 7.87565 31.7492C7.87565 31.7463 8.96597 32.5119 8.96597 32.5119L11.8777 31.6734L14.1381 29.133L14.5338 36.4689L16.519 37.9406V17.1685C14.2805 17.1722 12.3553 17.8701 12.3553 17.8701Z" fill="#53537A"/>
<path d="M23.7364 5.86104C24.1722 6.66111 27.9189 14.0576 27.9189 16.619L26.2571 21.0773C26.5383 23.593 27.0975 29.0591 26.6753 30.127C26.4147 30.7875 25.4214 32.1464 24.5717 33.2468L25.7333 43.6899L24.163 44.8037L23.29 37.1732C23.1699 37.9475 22.9895 38.7743 22.7144 39.5168C22.3506 40.4995 21.7077 41.2442 20.8855 41.6853C20.8373 44.0412 18.6315 45.3122 16.5533 45.3122C14.4578 45.3122 12.2335 44.0422 12.1845 41.6872C11.3606 41.2452 10.7169 40.5005 10.3527 39.5168C10.0886 38.8029 9.91065 38.0127 9.79001 37.2643L8.9548 44.9439L7.37598 43.812L8.51613 33.2786C7.65983 32.1733 6.64737 30.7942 6.38429 30.1264C5.96216 29.0582 6.49953 23.593 6.78109 21.0769L5.02051 16.4624V16.312C5.02051 13.7506 8.86539 6.66111 9.30185 5.86104L10.5471 3.61487C11.3052 8.81902 11.684 11.4234 11.6835 11.428L12.2966 15.6452L13.1033 16.9513C13.8784 16.6937 15.1943 16.3359 16.5267 16.3359C17.8606 16.3359 19.1853 16.6949 19.9638 16.9521L20.77 15.6454L22.5169 3.61487L23.7364 5.86104ZM16.5533 43.6377C17.4731 43.6377 18.7831 43.2281 19.1102 42.1422C19.0751 42.1432 19.0412 42.146 19.0061 42.146C18.8271 42.146 18.6598 42.1295 18.4974 42.1076C18.023 42.7575 17.2838 42.9547 16.535 42.9547C15.7875 42.9547 15.0497 42.7557 14.5761 42.1068C14.4127 42.1297 14.2435 42.146 14.063 42.146C14.0286 42.146 13.9954 42.1432 13.9615 42.1422C14.2919 43.2281 15.6195 43.6377 16.5533 43.6377ZM15.476 41.8529C15.7613 42.0633 16.1139 42.1804 16.5356 42.1804C16.9551 42.1804 17.306 42.0625 17.5909 41.8529C17.3637 41.7534 17.1581 41.6349 16.9769 41.5055C16.8128 41.5533 16.6558 41.5523 16.5348 41.5523C16.4131 41.5523 16.2545 41.5523 16.0892 41.5045C15.9083 41.6349 15.7032 41.7534 15.476 41.8529ZM22.0121 33.7514C23.1423 32.3695 24.8437 30.1437 25.0902 29.5208C25.276 28.8795 24.959 24.6278 24.5555 21.0643L24.5333 20.8667L24.8668 19.9814C23.7673 18.8275 23.0003 17.2461 22.4762 15.7528L22.4081 16.2219L20.6722 19.0308L19.9943 18.7464C19.9777 18.7392 18.2078 18.0096 16.5277 18.0096C14.8369 18.0096 13.0956 18.7386 13.0786 18.7458L12.3996 19.0326L10.6617 16.2225L10.6102 15.8626C10.0805 17.3413 9.31264 18.8949 8.21838 20.0237L8.5369 20.8673L8.51468 21.0651C8.11103 24.6278 7.79396 28.8795 7.98603 29.5369C8.22627 30.1447 9.92788 32.3705 11.0574 33.7514L11.246 33.9821L11.2449 34.2777C11.2449 34.3055 11.2483 37.0393 11.953 38.9419C12.4646 40.3218 13.5996 40.4693 14.0645 40.4693C15.2331 40.4693 15.7275 39.4136 15.7478 39.3687C16.0217 38.8382 16.1586 37.9668 16.1586 36.7543H16.8651C16.8651 37.7284 17.0124 38.6018 17.307 39.3744C17.3249 39.4126 17.8317 40.4719 19.0061 40.4719C19.47 40.4719 20.6054 40.3228 21.1166 38.9429C21.8236 37.0336 21.8244 34.3055 21.8244 34.2787L21.8236 33.9831L22.0121 33.7514Z" fill="#333152"/>
<path d="M21.8194 26.3207H19.2675H18.417V26.3561C18.417 27.5255 19.4444 28.4729 20.6495 28.4729C21.8551 28.4729 22.8825 27.5253 22.8825 26.3561V26.3207H21.8194Z" fill="#333152"/>
<path d="M19.2676 26.3207V26.3561C19.2676 27.0517 19.8365 27.6154 20.5437 27.6154C21.251 27.6154 21.8197 27.0517 21.8197 26.3561V26.3207H19.2676Z" fill="white"/>
<path d="M20.3393 26.3207C20.3334 26.3207 20.3285 26.3236 20.3233 26.3246C20.3974 26.3399 20.4385 26.5054 20.4225 26.6155C20.3986 26.7839 20.2529 26.9007 20.0859 26.9036C20.1345 27.1236 20.3168 27.3006 20.5589 27.3341C20.8683 27.3772 21.1542 27.1684 21.1981 26.8642C21.2296 26.6402 21.1202 26.3207 20.9373 26.3207H20.3393Z" fill="#333152"/>
<path d="M13.6063 26.3207H11.0548H10.2041V26.3561C10.2041 27.5255 11.2317 28.4729 12.4366 28.4729C13.6422 28.4729 14.6698 27.5253 14.6698 26.3561V26.3207H13.6063Z" fill="#333152"/>
<path d="M11.0547 26.3207V26.3561C11.0547 27.0517 11.624 27.6154 12.3302 27.6154C13.0377 27.6154 13.6064 27.0517 13.6064 26.3561V26.3207H11.0547Z" fill="white"/>
<path d="M12.7245 26.3207H12.1259C12.1207 26.3207 12.1151 26.3236 12.1103 26.3246C12.1842 26.3399 12.2251 26.5054 12.2096 26.6155C12.1855 26.7839 12.0405 26.9007 11.8726 26.9036C11.9218 27.1236 12.1041 27.3006 12.3458 27.3341C12.6549 27.3772 12.9415 27.1684 12.9847 26.8642C13.0167 26.6402 12.9074 26.3207 12.7245 26.3207Z" fill="#333152"/>
<path d="M21.5628 25.3225C21.7057 25.1684 22.9185 23.8143 21.2964 23.8143C19.8307 23.8143 18.7761 24.978 18.4966 25.3225H21.5628Z" fill="#C49A7E"/>
<path d="M14.566 25.3225C14.2867 24.978 13.2321 23.8143 11.766 23.8143C10.1447 23.8143 11.3576 25.1684 11.4996 25.3225H14.566Z" fill="#D8B7A0"/>
<path d="M6.76807 16.1758C6.86441 14.8472 8.2691 11.6638 9.60901 8.98105L9.96615 11.434C9.82994 12.3511 9.20743 15.948 7.53758 18.2152L6.76807 16.1758Z" fill="#D8B7A0"/>
<path d="M23.1313 11.243L23.4605 8.98126C24.8002 11.6638 26.2057 14.8474 26.302 16.176L25.5506 18.167C23.7464 15.6711 23.1804 11.6138 23.1313 11.243Z" fill="#C49A7E"/>
<mask id="mask0" style="mask-type:alpha" maskUnits="userSpaceOnUse" x="14" y="35" width="6" height="5">
<path d="M15.2835 38.2441C14.6543 37.7743 14.0088 37.1815 14.0088 36.7268C14.0088 36.4281 14.5455 35.5075 14.5455 35.5075H18.5368C18.5368 35.5075 19.0603 36.3237 19.0603 36.7268C19.0603 37.1502 18.4087 37.7266 17.7586 38.1964C17.5373 37.8215 17.2558 37.7564 17.1257 38.0519C17.0585 38.205 17.0453 38.4255 17.0781 38.6562C16.7241 38.8813 16.4654 39.0263 16.4654 39.0263C16.4654 39.0263 16.2656 38.9114 15.9799 38.7266C16.026 38.4709 16.0171 38.2205 15.943 38.0519C15.8117 37.7524 15.5246 37.8233 15.3016 38.2117C15.2954 38.2224 15.2894 38.2331 15.2835 38.2441Z" fill="white"/>
</mask>
<g mask="url(#mask0)">
<path d="M15.2835 38.2441C14.6543 37.7743 14.0088 37.1815 14.0088 36.7268C14.0088 36.4281 14.5455 35.5075 14.5455 35.5075H18.5368C18.5368 35.5075 19.0603 36.3237 19.0603 36.7268C19.0603 37.1502 18.4087 37.7266 17.7586 38.1964C17.5373 37.8215 17.2558 37.7564 17.1257 38.0519C17.0585 38.205 17.0453 38.4255 17.0781 38.6562C16.7241 38.8813 16.4654 39.0263 16.4654 39.0263C16.4654 39.0263 16.2656 38.9114 15.9799 38.7266C16.026 38.4709 16.0171 38.2205 15.943 38.0519C15.8117 37.7524 15.5246 37.8233 15.3016 38.2117C15.2954 38.2224 15.2894 38.2331 15.2835 38.2441Z" fill="#333152"/>
</g>
</g>
<defs>
<clipPath id="clip0">
<rect width="100" height="51.9298" fill="white"/>
</clipPath>
</defs>
</svg>
