<svg width="43" height="22" viewBox="0 0 43 22" fill="none" xmlns="http://www.w3.org/2000/svg">
<path d="M38.6586 16.9569L35.9485 12.2639H35.6759V16.9569H32.2922V5.27229L35.6759 0.00463867V10.9071C36.3494 10.085 38.6185 6.96433 38.6185 6.96433H42.7959L38.835 11.1385L42.9322 16.9649H38.6586V16.9569ZM27.9064 6.99625H31.2579L27.3291 16.925C26.1584 19.91 24.4827 21.9293 21.981 21.9293C21.0189 21.9293 20.2091 21.6818 19.7841 21.4424L21.1311 19.3673C21.3316 19.3912 21.5401 19.3992 21.7485 19.3992C22.9031 19.3992 23.7691 18.2818 24.3303 16.9569L20.2091 6.99625H24.0016L25.4849 11.4418C25.7736 12.2879 25.982 13.9001 25.982 13.9001C25.982 13.9001 26.2466 12.3437 26.5193 11.4977L27.9064 6.99625ZM16.2963 16.9569V11.2662C16.2963 9.9653 15.719 9.35074 14.6205 9.35074C14.0833 9.35074 13.522 9.50238 13.1372 9.73384V16.9569H9.75354V7.09203L13.065 6.82067L12.9848 8.43289H13.0971C13.8107 7.47513 15.0214 6.74883 16.4646 6.74883C18.1965 6.74883 19.6959 7.81833 19.6959 10.3484V16.9569H16.2963ZM3.68388 17.1724C2.24064 17.1724 1.07 16.925 0.067749 16.4461L0.372434 14.1475C1.43082 14.6663 2.6255 14.9137 3.62776 14.9137C4.3574 14.9137 4.83848 14.6663 4.83848 14.2273C4.83848 12.9663 0.276218 13.2696 0.276218 9.97328C0.276218 7.86622 2.21658 6.75681 4.64605 6.75681C5.85677 6.75681 7.10759 7.08405 7.91741 7.37137L7.58867 9.63008C6.73876 9.30285 5.58416 8.99956 4.62199 8.99956C4.02866 8.99956 3.54758 9.20707 3.54758 9.59017C3.54758 10.8353 8.20606 10.5878 8.20606 13.8043C8.20606 15.9433 6.29776 17.1724 3.68388 17.1724Z" fill="white"/>
</svg>
