<svg width="40" height="40" viewBox="0 0 40 40" fill="none" xmlns="http://www.w3.org/2000/svg">
<rect width="40" height="40" rx="5" fill="url(#paint0_linear)"/>
<path d="M32.0136 14.1228C32.0019 15.2071 31.6357 16.2578 30.9711 17.1146C30.2405 18.0845 29.1731 18.7454 27.9793 18.9672C27.448 19.0691 26.9033 19.08 26.3684 18.9994C26.1353 18.9644 25.9046 18.9145 25.678 18.8498C25.6494 18.8412 25.619 18.8412 25.5905 18.8498L24.9162 19.5149L22.8864 21.5194L21.3951 23.0015L19.531 24.8426C19.5003 24.8697 19.468 24.8951 19.4344 24.9185C19.37 25.0067 19.2924 25.0843 19.2042 25.1486C19.0454 25.3074 18.8935 25.4731 18.7209 25.6089C18.7739 25.8644 18.8314 26.1175 18.8659 26.3776C18.9189 26.8073 18.915 27.2422 18.8544 27.6709C18.7887 28.2049 18.633 28.7239 18.3942 29.2059C18.0949 29.8291 17.6676 30.3822 17.1402 30.8291C16.6128 31.276 15.9972 31.6067 15.3333 31.7996C14.8242 31.9531 14.2927 32.0192 13.7615 31.9952C13.3057 31.9814 12.8541 31.9039 12.4198 31.7651C12.337 31.7374 12.3347 31.719 12.3991 31.6569C13.2138 30.8576 14.0262 30.0559 14.8363 29.252L15.1792 28.9068C15.2264 28.8679 15.2644 28.8191 15.2905 28.7638C15.3167 28.7084 15.3302 28.648 15.3302 28.5869C15.3302 28.5257 15.3167 28.4653 15.2905 28.41C15.2644 28.3547 15.2264 28.3059 15.1792 28.267C14.949 28.0184 14.7028 27.7722 14.4657 27.526L13.6718 26.7044C13.3519 26.373 13.0343 26.0393 12.7144 25.7102C12.6767 25.6627 12.6287 25.6244 12.5741 25.5981C12.5196 25.5717 12.4597 25.558 12.3991 25.558C12.3385 25.558 12.2787 25.5717 12.2241 25.5981C12.1695 25.6244 12.1215 25.6627 12.0838 25.7102L10.8227 26.9506L9.28537 28.4718L9.23014 28.5155C9.1428 28.2298 9.07968 27.9373 9.04142 27.641C9.03819 27.531 9.02432 27.4216 9 27.3142V26.6537C9.02071 26.5041 9.04142 26.3569 9.06214 26.2073C9.12808 25.7421 9.26224 25.2893 9.46027 24.8633C9.86145 23.979 10.5147 23.2329 11.3382 22.7184C11.9295 22.3462 12.5935 22.1048 13.2857 22.0103C13.9779 21.9159 14.6824 21.9705 15.3518 22.1707C15.3765 22.1786 15.403 22.1786 15.4277 22.1707L16.102 21.5079L17.9569 19.6668L19.6576 17.9753L21.4987 16.1641C21.5267 16.1387 21.5567 16.1156 21.5884 16.0951C21.5969 16.0516 21.6216 16.0129 21.6575 15.9869L22.2627 15.3886C22.2725 15.3661 22.2775 15.3418 22.2775 15.3172C22.2775 15.2927 22.2725 15.2684 22.2627 15.2459C22.0942 14.5803 22.0627 13.8874 22.1703 13.2093C22.278 12.5312 22.5224 11.8821 22.8887 11.3014C23.3273 10.6065 23.9324 10.0322 24.6493 9.63057C25.202 9.31354 25.8136 9.11231 26.4466 9.03912C26.5499 9.03988 26.6529 9.02672 26.7527 9H27.3372L27.8228 9.06444C28.077 9.09893 28.328 9.15435 28.5731 9.23014C28.6835 9.26236 28.6858 9.27386 28.603 9.35671L26.992 10.9446L25.8414 12.0953C25.7973 12.1343 25.7617 12.1819 25.7366 12.2352C25.7116 12.2884 25.6977 12.3462 25.6957 12.405C25.6938 12.4638 25.7039 12.5224 25.7254 12.5772C25.7468 12.632 25.7793 12.6818 25.8206 12.7236L28.3038 15.3103C28.3411 15.3569 28.3884 15.3945 28.4422 15.4203C28.496 15.4461 28.5548 15.4595 28.6145 15.4595C28.6741 15.4595 28.733 15.4461 28.7868 15.4203C28.8406 15.3945 28.8879 15.3569 28.9252 15.3103L30.9734 13.2828L31.6983 12.5671C31.719 12.5464 31.7443 12.5303 31.7743 12.505C31.8676 12.767 31.9309 13.0388 31.963 13.3151C32.0016 13.5825 32.0185 13.8526 32.0136 14.1228Z" fill="white"/>
<path d="M12.6683 16.4793C12.9559 16.4793 13.2436 16.4793 13.5336 16.4793C13.5644 16.4833 13.5957 16.4775 13.623 16.4626C13.6502 16.4477 13.6721 16.4246 13.6855 16.3965C13.9224 15.9963 14.1967 15.6195 14.5047 15.2711C14.5234 15.2535 14.5358 15.2302 14.5399 15.2048C14.5441 15.1795 14.5398 15.1534 14.5278 15.1307C14.3298 14.5807 14.1342 14.0284 13.9363 13.4761C13.9232 13.4537 13.9187 13.4272 13.9238 13.4018C13.9289 13.3763 13.9432 13.3536 13.9639 13.338C14.4981 12.8521 15.0838 12.4261 15.7107 12.0676C15.7293 12.0508 15.7535 12.0415 15.7785 12.0415C15.8036 12.0415 15.8278 12.0508 15.8464 12.0676C16.3067 12.4243 16.767 12.7788 17.2273 13.1355C17.2497 13.1566 17.2781 13.1703 17.3087 13.1744C17.3393 13.1785 17.3703 13.173 17.3976 13.1585C17.8268 12.9746 18.2721 12.8306 18.7277 12.7281C18.7509 12.7245 18.7722 12.7136 18.7888 12.6971C18.8053 12.6806 18.8162 12.6592 18.8198 12.6361C18.9809 12.0768 19.1489 11.5199 19.31 10.9607C19.3151 10.9288 19.3317 10.8999 19.3568 10.8795C19.3818 10.8591 19.4135 10.8487 19.4458 10.8502C20.0989 10.7811 20.7574 10.778 21.4111 10.841C21.4779 10.841 21.5446 10.8594 21.6113 10.8617C21.628 10.861 21.6442 10.8665 21.657 10.8771C21.6698 10.8878 21.6781 10.9028 21.6804 10.9193C21.7356 11.1126 21.7955 11.3036 21.853 11.4946C21.8617 11.54 21.8527 11.5869 21.8277 11.6258C21.4738 12.4218 21.3008 13.2864 21.3214 14.1573C21.3235 14.3778 21.3427 14.5979 21.3789 14.8155C21.395 14.9075 21.395 14.942 21.2753 14.9236C20.7186 14.8413 20.1524 14.8476 19.5977 14.942C18.4434 15.1334 17.3772 15.679 16.5467 16.5033C15.7163 17.3275 15.1627 18.3896 14.9627 19.5425C14.863 20.0886 14.8506 20.6471 14.9259 21.1971C14.9259 21.2708 14.9029 21.2639 14.8592 21.2547C14.4198 21.1815 13.9734 21.1599 13.529 21.1902C13.2452 21.2048 12.9637 21.2488 12.689 21.3214C12.6084 21.3444 12.5762 21.3398 12.5693 21.2363C12.528 20.7669 12.528 20.2949 12.5693 19.8255C12.5741 19.7963 12.5696 19.7664 12.5563 19.7399C12.5431 19.7135 12.5219 19.6919 12.4957 19.6782L11.055 18.684C11.0316 18.6743 11.0127 18.6561 11.002 18.6331C10.9914 18.6101 10.9898 18.5839 10.9975 18.5598C11.147 17.8468 11.3739 17.1523 11.6741 16.4886C11.6828 16.4683 11.6986 16.452 11.7185 16.4426C11.7385 16.4333 11.7611 16.4316 11.7822 16.4379H12.6683V16.4793Z" fill="white"/>
<path d="M28.5152 24.5043C28.2275 24.5043 27.9399 24.5043 27.6499 24.5043C27.6191 24.5003 27.5878 24.5061 27.5605 24.521C27.5332 24.5359 27.5113 24.559 27.498 24.5871C27.261 24.9873 26.9867 25.3641 26.6787 25.7125C26.66 25.7301 26.6477 25.7534 26.6435 25.7788C26.6394 25.8041 26.6436 25.8302 26.6557 25.8529C26.8536 26.4029 27.0492 26.9552 27.2472 27.5075C27.2603 27.5299 27.2647 27.5564 27.2596 27.5818C27.2545 27.6073 27.2403 27.63 27.2195 27.6456C26.6854 28.1315 26.0997 28.5575 25.4728 28.916C25.4542 28.9328 25.43 28.9421 25.4049 28.9421C25.3798 28.9421 25.3556 28.9328 25.337 28.916C24.8767 28.5593 24.4165 28.2048 23.9562 27.8481C23.9338 27.827 23.9053 27.8133 23.8748 27.8092C23.8442 27.8051 23.8131 27.8106 23.7859 27.8251C23.3566 28.009 22.9114 28.153 22.4557 28.2555C22.4326 28.2591 22.4112 28.27 22.3947 28.2865C22.3781 28.303 22.3673 28.3244 22.3637 28.3475C22.2026 28.9068 22.0346 29.4637 21.8735 30.0229C21.8684 30.0548 21.8518 30.0837 21.8267 30.1041C21.8016 30.1245 21.77 30.1349 21.7377 30.1334C21.0863 30.2045 20.4294 30.2099 19.7769 30.1495C19.7102 30.1495 19.6435 30.1311 19.5767 30.1288C19.5601 30.1295 19.5438 30.124 19.5311 30.1134C19.5183 30.1027 19.51 30.0877 19.5077 30.0712C19.4524 29.8779 19.3926 29.6869 19.3351 29.4959C19.3285 29.472 19.3269 29.447 19.3305 29.4224C19.334 29.3978 19.3427 29.3743 19.3558 29.3532C19.7097 28.5572 19.8826 27.6926 19.8621 26.8217C19.8643 26.5984 19.8489 26.3752 19.8161 26.1543C19.7999 26.0623 19.7999 26.0278 19.9196 26.0462C20.4732 26.1282 21.0362 26.1228 21.5881 26.0301C22.7401 25.8391 23.8043 25.2953 24.6341 24.4738C25.4639 23.6522 26.0183 22.5934 26.2207 21.4434C26.32 20.9012 26.3332 20.3467 26.2599 19.8003C26.2599 19.7266 26.2829 19.7335 26.3266 19.7427C26.766 19.8159 27.2124 19.8375 27.6568 19.8072C27.9406 19.7926 28.2221 19.7486 28.4968 19.676C28.5773 19.653 28.6096 19.6576 28.6165 19.7612C28.6578 20.2305 28.6578 20.7026 28.6165 21.1719C28.6117 21.2011 28.6162 21.231 28.6294 21.2575C28.6426 21.2839 28.6639 21.3055 28.6901 21.3192L30.1331 22.3019C30.1565 22.3116 30.1754 22.3298 30.186 22.3528C30.1967 22.3758 30.1983 22.402 30.1906 22.4261C30.0411 23.1391 29.8142 23.8336 29.514 24.4974C29.5053 24.5176 29.4895 24.5339 29.4696 24.5433C29.4496 24.5526 29.4269 24.5543 29.4058 24.548H28.5152V24.5043Z" fill="white"/>
<defs>
<linearGradient id="paint0_linear" x1="0" y1="0" x2="47.5131" y2="26.5598" gradientUnits="userSpaceOnUse">
<stop stop-color="#7530A6"/>
<stop offset="1" stop-color="#461D9E"/>
</linearGradient>
</defs>
</svg>
