<svg width="61" height="95" viewBox="0 0 61 95" fill="none" xmlns="http://www.w3.org/2000/svg">
<path fill-rule="evenodd" clip-rule="evenodd" d="M43.4462 68.6874L43.5173 69.3398L44.0438 68.9599L45.4177 81.5372L48.4515 79.3543L46.2535 59.2642C47.8767 57.1602 49.7745 54.562 50.2723 53.2991C51.0788 51.2572 50.0105 40.8061 49.4734 35.9961L52.7769 27.172V26.8849H52.7773C52.7773 21.9874 45.4903 8.43227 44.6577 6.90253L42.3279 2.60784L42.3054 2.76345L40.8105 0L37.8868 20.2077L36.8199 27.9091C35.9972 27.6598 34.9711 27.3927 33.8501 27.2006C32.8954 26.1217 31.8418 25.1407 30.7848 25.1407C30.2261 25.1407 29.717 25.8891 29.2474 27.0177C27.4681 27.2002 25.8161 27.6363 24.6588 28.0047L23.7052 20.2074L22.6789 13.1238C22.6803 13.1121 20.7769 0 20.7769 0L18.6929 3.7729C18.4512 4.21753 17.5851 5.81855 16.5342 7.91794C14.6106 11.5221 8.90234 22.5676 8.90234 26.8849V27.1724L12.2658 35.9954C11.7279 40.8061 10.7013 51.2557 11.5078 53.2979C12.0103 54.5749 13.9446 57.2117 15.5805 59.3251L13.3769 79.5504L16.4107 81.6583L17.7673 69.2108L18.1052 69.4462L18.2413 68.194C18.4536 69.2331 18.7296 70.2799 19.0891 71.2525C19.7849 73.1334 21.0146 74.5573 22.5887 75.4022C22.6823 79.9051 26.9315 82.3333 30.9348 82.3333C34.9052 82.3333 39.1192 79.9032 39.2112 75.3987C40.7821 74.5553 42.0102 73.1314 42.7052 71.2525C43.0081 70.4343 43.2509 69.5626 43.4462 68.6874Z" fill="white"/>
<path fill-rule="evenodd" clip-rule="evenodd" d="M60.6523 73.7906L30.7459 94.8138L0.839844 73.7906V24.7667C0.839844 24.7667 11.8979 20.6765 30.7865 20.6765C49.6752 20.6765 60.6523 24.7667 60.6523 24.7667V73.7906Z" fill="white"/>
<path fill-rule="evenodd" clip-rule="evenodd" d="M43.6669 60.7413H30.7714V39.304L17.6867 60.1146L15.6523 81.484L30.5699 92.0627L30.7714 92.2059L46.0273 81.4079L43.6669 60.7413Z" fill="#3B3B63"/>
<path fill-rule="evenodd" clip-rule="evenodd" d="M30.4646 91.8334L2.71484 72.2893V26.7143C2.71484 26.7143 12.9756 22.9119 30.5024 22.9119C48.0291 22.9119 58.2148 26.7143 58.2148 26.7143V72.2893L30.4646 91.8334Z" fill="#DBDBDB"/>
<path fill-rule="evenodd" clip-rule="evenodd" d="M30.878 22.9119C30.865 22.9119 30.8528 22.9123 30.8398 22.9123V91.8334H30.8402L58.5898 72.2889V26.7144C58.5898 26.7144 48.4043 22.9119 30.878 22.9119Z" fill="#C6C6C6"/>
<path fill-rule="evenodd" clip-rule="evenodd" d="M45.8398 81.3899L43.4939 60.7256H30.6523V92.206L45.8398 81.3899Z" fill="#3B3B63"/>
<path fill-rule="evenodd" clip-rule="evenodd" d="M15.6523 81.484L30.8398 92.2059V39.304L17.6959 60.1146L15.6523 81.484Z" fill="#53537A"/>
<path fill-rule="evenodd" clip-rule="evenodd" d="M37.2148 75.2549C37.2148 78.7419 33.8588 80.4706 30.78 80.4706C27.7013 80.4706 24.2773 78.7419 24.2773 75.2549" fill="#BC9375"/>
<path fill-rule="evenodd" clip-rule="evenodd" d="M35.3398 73.3921C35.3398 77.5051 33.0654 78.6078 30.7463 78.6078C28.4276 78.6078 26.1523 77.5051 26.1523 73.3921" fill="#083251"/>
<path fill-rule="evenodd" clip-rule="evenodd" d="M30.7463 77.1175C28.2861 77.1175 27.0898 75.3497 27.0898 71.7156H28.2629C28.2629 75.9702 29.9397 75.9702 30.7463 75.9702C31.5525 75.9702 33.2297 75.9702 33.2297 71.7156H34.4023C34.4023 75.3497 33.2061 77.1175 30.7463 77.1175Z" fill="white"/>
<path fill-rule="evenodd" clip-rule="evenodd" d="M50.3398 29.5327C50.3398 25.0608 42.6672 10.9902 42.6672 10.9902L40.0716 28.8346L37.7422 32.602L30.7605 32.8816L30.7329 32.937V32.8816L23.75 32.602L21.4214 28.8346L18.8258 10.9902C18.8258 10.9902 11.1523 25.0608 11.1523 29.5327L14.3941 38.1255C14.3941 38.1255 12.7583 52.5588 13.5051 54.4486C14.2497 56.3387 19.4217 62.6593 19.4217 62.6593C19.4217 62.6593 19.4064 67.9728 20.8223 71.793C21.8327 74.521 24.0587 75.6275 26.1901 75.6275C29.4548 75.6275 30.7321 72.6772 30.7321 72.6772C30.7321 72.6772 32.0401 75.6275 35.3048 75.6275C37.4358 75.6275 39.6595 74.5229 40.6721 71.793C42.0866 67.9743 42.0724 62.6593 42.0724 62.6593C42.0724 62.6593 47.2433 56.3387 47.9894 54.4486C48.7358 52.5584 47.0997 38.1255 47.0997 38.1255L50.3398 29.5327Z" fill="#C49A7E"/>
<path fill-rule="evenodd" clip-rule="evenodd" d="M30.652 32.9098L30.6386 32.9366V32.8816L23.6894 32.602L21.3719 28.8346L18.7881 10.9902C18.7881 10.9902 11.1523 25.0608 11.1523 29.5327L14.3777 38.1255C14.3777 38.1255 12.7502 52.5588 13.4923 54.4486C14.2348 56.3387 19.38 62.6593 19.38 62.6593C19.38 62.6593 19.3667 67.9728 20.7743 71.793C21.7813 74.521 23.9966 75.6275 26.1158 75.6275C29.3667 75.6275 30.6379 72.6772 30.6379 72.6772C30.6379 72.6772 30.6436 72.6878 30.6523 72.707V32.9098H30.652Z" fill="#D8B7A0"/>
<path fill-rule="evenodd" clip-rule="evenodd" d="M47.1593 38.7701C46.5659 37.5447 47.4096 34.6454 47.4096 34.6454C42.5755 29.7555 41.3665 19.5588 41.3665 19.5588C40.4639 22.7718 38.5021 32.2451 38.5021 32.2451C38.5021 32.2451 34.8942 30.9191 30.7899 30.9127C30.7834 30.9127 30.7792 30.9127 30.7754 30.9127C30.7692 30.9127 30.765 30.9127 30.7593 30.9127C30.5339 30.9139 30.3119 30.9195 30.0898 30.9267V70.9003L30.3963 71.3432V71.1244H30.5858V71.3432L30.5877 71.1244H30.9618V71.3432V71.1244H31.1533V71.3432L34.4949 66.5278L35.2213 53.0063L39.3817 57.6895L44.7413 59.2346C44.7413 59.2346 46.7466 57.8239 46.7466 57.8292C47.598 56.6528 47.8804 55.6507 48.0863 55.1306C48.8307 53.2387 47.1593 38.7701 47.1593 38.7701Z" fill="#3B3B63"/>
<path fill-rule="evenodd" clip-rule="evenodd" d="M23.1407 32.2454C23.1407 32.2454 21.1856 22.7723 20.2872 19.5588C20.2872 19.5588 19.0835 29.7558 14.2668 34.6458C14.2668 34.6458 15.1073 37.5456 14.5161 38.7706C14.5161 38.7706 12.8511 53.2404 13.5926 55.1294C13.7974 55.6498 14.081 56.6516 14.928 57.828C14.928 57.8228 16.927 59.2339 16.927 59.2339L22.2652 57.6883L26.4092 53.0058L27.1347 66.5277L30.4618 71.3432V71.1244H30.6526V71.3432V71.1244H30.8395V30.9134C26.7354 30.9202 23.1407 32.2454 23.1407 32.2454Z" fill="#53537A"/>
<path fill-rule="evenodd" clip-rule="evenodd" d="M40.5007 47.8726H35.7861H34.2148V47.9368C34.2148 50.0624 36.113 51.7843 38.3395 51.7843C40.5667 51.7843 42.4648 50.062 42.4648 47.9368V47.8726H40.5007Z" fill="#333152"/>
<path fill-rule="evenodd" clip-rule="evenodd" d="M35.7148 47.8726V47.9387C35.7148 49.2398 36.7598 50.2941 38.0588 50.2941C39.3578 50.2941 40.4023 49.2398 40.4023 47.9387V47.8726H35.7148Z" fill="white"/>
<path fill-rule="evenodd" clip-rule="evenodd" d="M38.7861 47.8726H37.6824C37.6716 47.8726 37.6624 47.8778 37.6529 47.8797C37.7897 47.9077 37.8656 48.2102 37.836 48.4115C37.792 48.7192 37.523 48.9329 37.2148 48.9381C37.3045 49.3403 37.641 49.6638 38.0878 49.725C38.6588 49.8038 39.1865 49.4221 39.2674 48.866C39.3256 48.4567 39.1237 47.8726 38.7861 47.8726Z" fill="#333152"/>
<path fill-rule="evenodd" clip-rule="evenodd" d="M25.5001 47.8726H20.7864H19.2148V47.9368C19.2148 50.0624 21.1133 51.7843 23.3393 51.7843C25.5664 51.7843 27.4648 50.062 27.4648 47.9368V47.8726H25.5001Z" fill="#333152"/>
<path fill-rule="evenodd" clip-rule="evenodd" d="M20.7148 47.8726V47.9387C20.7148 49.2398 21.7607 50.2941 23.058 50.2941C24.3576 50.2941 25.4023 49.2398 25.4023 47.9387V47.8726H20.7148Z" fill="white"/>
<path fill-rule="evenodd" clip-rule="evenodd" d="M23.787 47.8726H22.6823C22.6727 47.8726 22.6624 47.8778 22.6536 47.8797C22.79 47.9077 22.8655 48.2102 22.8367 48.4115C22.7923 48.7192 22.5248 48.9329 22.2148 48.9381C22.3057 49.3403 22.6421 49.6638 23.0881 49.725C23.6586 49.8038 24.1874 49.4221 24.2671 48.866C24.3261 48.4567 24.1246 47.8726 23.787 47.8726Z" fill="#333152"/>
<path fill-rule="evenodd" clip-rule="evenodd" d="M40.095 46.0097C40.3602 45.7243 42.6119 43.2156 39.6004 43.2156C36.8792 43.2156 34.9212 45.3715 34.4023 46.0097H40.095Z" fill="#C49A7E"/>
<path fill-rule="evenodd" clip-rule="evenodd" d="M27.2773 46.0097C26.7588 45.3715 24.8006 43.2156 22.0783 43.2156C19.0681 43.2156 21.32 45.7243 21.5837 46.0097H27.2773Z" fill="#D8B7A0"/>
<path fill-rule="evenodd" clip-rule="evenodd" d="M17.7148 46.7549H29.1523V47.8725H17.7148V46.7549Z" fill="#53537A"/>
<path fill-rule="evenodd" clip-rule="evenodd" d="M51.8398 29.3869C51.8398 24.6611 44.8331 11.581 44.0325 10.1049L41.7924 5.96069L38.5834 28.1569L37.1023 30.5679C35.6724 30.0933 33.2389 29.431 30.7886 29.431C28.341 29.431 25.9239 30.091 24.5001 30.5664L23.0182 28.1565L21.8919 20.3759C21.8934 20.3631 21.8953 20.3458 21.8953 20.3379L21.8865 20.3367L19.8043 5.96069L17.5169 10.1049C16.7152 11.581 9.65234 24.6611 9.65234 29.3869V29.6643L12.8864 38.1781C12.3692 42.8202 11.3821 52.9036 12.1575 54.8743C12.6408 56.1065 14.5006 58.6509 16.0736 60.6902L13.9548 80.2067L16.872 82.2407L18.4137 68.0437C18.6353 69.4245 18.9622 70.8825 19.4473 72.1996C20.1164 74.0146 21.2988 75.3885 22.8123 76.2039C22.9023 80.549 26.9881 82.8921 30.8374 82.8921C34.6551 82.8921 38.707 80.5471 38.7955 76.2005C40.3059 75.3867 41.4868 74.0127 42.1551 72.1996C42.6605 70.8297 42.9919 69.3042 43.2124 67.8756L44.7633 82.1238L47.6804 80.0175L45.5669 60.6314C47.1277 58.6011 48.9525 56.0941 49.4311 54.8754C50.2066 52.9051 49.1794 42.8202 48.663 38.1788L51.8395 29.664V29.3869H51.8398ZM12.8398 29.0405C13.015 26.6016 15.568 20.758 18.0032 15.8332L18.6523 20.3361C18.4048 22.0196 17.2734 28.6223 14.2384 32.7842L12.8398 29.0405ZM30.8716 79.7254C29.1714 79.7254 26.7539 78.9777 26.1523 76.9958C26.214 76.9977 26.2745 77.0029 26.3372 77.0029C26.6658 77.0029 26.9739 76.973 27.2715 76.9313C28.1339 78.1156 29.4772 78.4788 30.8383 78.4788C32.2017 78.4788 33.5477 78.119 34.4116 76.9328C34.7073 76.9727 35.012 77.0029 35.3379 77.0029C35.4018 77.0029 35.4634 76.9977 35.5273 76.9958C34.9319 78.9777 32.5465 79.7254 30.8716 79.7254ZM28.7773 76.4857C29.2003 76.2937 29.5822 76.0651 29.919 75.8136C30.2267 75.9059 30.5221 75.9059 30.7486 75.9059C30.974 75.9059 31.2663 75.9078 31.5717 75.8156C31.9092 76.0651 32.2919 76.2937 32.7148 76.4857C32.1844 76.8901 31.5311 77.1176 30.7502 77.1176C29.965 77.1176 29.3085 76.8917 28.7773 76.4857ZM46.4896 53.7325C46.0359 54.8826 42.9044 58.9918 40.8242 61.5432L40.4772 61.971L40.4787 62.5168C40.4787 62.5662 40.4772 67.603 39.1759 71.1279C38.235 73.6755 36.1452 73.9509 35.2915 73.9509C33.1299 73.9509 32.197 71.9951 32.1641 71.9246L32.0407 70.0925H29.4129L29.2944 71.914C29.2569 71.997 28.347 73.946 26.1961 73.946C25.3404 73.946 23.2514 73.6736 22.3098 71.126C21.0127 67.6135 21.0065 62.5662 21.0065 62.5149L21.0085 61.9691L20.6614 61.5432C18.5824 58.9937 15.4505 54.8845 15.0083 53.7623C14.6548 52.5485 15.2384 44.6989 15.9813 38.1213L16.0222 37.7561L15.436 36.1987C17.45 34.1146 18.8633 31.2464 19.8382 28.5162L19.933 29.1808L23.1318 34.3689L24.3815 33.8393C24.4129 33.8261 27.6178 32.4802 30.7298 32.4802C33.822 32.4802 37.0797 33.8272 37.1102 33.8404L38.358 34.3655L41.553 29.1797L41.6784 28.3136C42.643 31.0706 44.0547 33.9901 46.0783 36.1206L45.4646 37.755L45.5055 38.1197C46.248 44.6989 46.8316 52.5485 46.4896 53.7325ZM47.2748 32.7842C43.9673 28.1785 42.9297 20.6912 42.8398 20.0069L43.4432 15.8332C45.8991 20.7836 48.4757 26.6583 48.6523 29.1101L47.2748 32.7842Z" fill="#333152"/>
<path fill-rule="evenodd" clip-rule="evenodd" d="M34.5559 64.8235H27.1485C27.1485 64.8235 26.1523 66.5292 26.1523 67.0826C26.1523 68.7262 30.7115 71.3431 30.7115 71.3431C30.7115 71.3431 35.5273 68.6483 35.5273 67.0826C35.5273 66.3358 34.5559 64.8235 34.5559 64.8235Z" fill="#333152"/>
<path fill-rule="evenodd" clip-rule="evenodd" d="M33.049 69.9094C32.6484 69.2167 32.1312 69.0902 31.8939 69.6244C31.6573 70.159 31.7926 71.1537 32.1932 71.8449C32.5938 72.538 33.1114 72.6644 33.3476 72.1299C33.5849 71.5957 33.4504 70.6006 33.049 69.9094Z" fill="#C49A7E"/>
<path fill-rule="evenodd" clip-rule="evenodd" d="M28.6303 69.9094C28.2288 70.6006 28.0954 71.5957 28.3316 72.1299C28.5682 72.6644 29.0848 72.538 29.4874 71.8449C29.8881 71.1541 30.0223 70.159 29.7849 69.6244C29.5487 69.0902 29.0317 69.2167 28.6303 69.9094Z" fill="#D8B7A0"/>
</svg>
