<svg width="43" height="24" viewBox="0 0 43 24" fill="none" xmlns="http://www.w3.org/2000/svg">
<path d="M38.6585 17.9569L35.9484 13.2639H35.6758V17.9569H32.2922V6.27229L35.6758 1.00464V11.9071C36.3493 11.085 38.6184 7.96433 38.6184 7.96433H42.7958L38.8349 12.1385L42.9321 17.9649H38.6585V17.9569ZM27.9063 7.99625H31.2579L27.329 17.925C26.1584 20.91 24.4826 22.9293 21.981 22.9293C21.0189 22.9293 20.209 22.6818 19.7841 22.4424L21.1311 20.3673C21.3316 20.3912 21.54 20.3992 21.7485 20.3992C22.9031 20.3992 23.769 19.2818 24.3303 17.9569L20.209 7.99625H24.0016L25.4849 12.4418C25.7736 13.2879 25.982 14.9001 25.982 14.9001C25.982 14.9001 26.2466 13.3437 26.5192 12.4977L27.9063 7.99625ZM16.2962 17.9569V12.2662C16.2962 10.9653 15.7189 10.3507 14.6205 10.3507C14.0832 10.3507 13.522 10.5024 13.1371 10.7338V17.9569H9.75351V8.09203L13.065 7.82067L12.9848 9.43289H13.097C13.8106 8.47513 15.0214 7.74883 16.4646 7.74883C18.1965 7.74883 19.6959 8.81833 19.6959 11.3484V17.9569H16.2962ZM3.68385 18.1724C2.24061 18.1724 1.06997 17.925 0.0677185 17.4461L0.372404 15.1475C1.43078 15.6663 2.62547 15.9137 3.62773 15.9137C4.35737 15.9137 4.83845 15.6663 4.83845 15.2273C4.83845 13.9663 0.276187 14.2696 0.276187 10.9733C0.276187 8.86622 2.21655 7.75681 4.64602 7.75681C5.85674 7.75681 7.10756 8.08405 7.91738 8.37137L7.58864 10.6301C6.73873 10.3028 5.58413 9.99956 4.62196 9.99956C4.02863 9.99956 3.54755 10.2071 3.54755 10.5902C3.54755 11.8353 8.20603 11.5878 8.20603 14.8043C8.20603 16.9433 6.29773 18.1724 3.68385 18.1724Z" fill="#727184"/>
</svg>
